<?xml version="1.0" encoding="utf-8"?>
<!-- Generator: Adobe Illustrator 28.1.0, SVG Export Plug-In . SVG Version: 6.00 Build 0)  -->
<svg
    version="1.1"
    id="Layer_1"
    xmlns="http://www.w3.org/2000/svg"
    xmlns:xlink="http://www.w3.org/1999/xlink"
    x="0px"
    y="0px"
    viewBox="0 0 600 600"
    style="enable-background: new 0 0 600 600"
    xml:space="preserve"
>
    <style type="text/css">
        .st0 {
            fill-rule: evenodd;
            clip-rule: evenodd;
            fill: #f2f3f4;
        }
        .st1 {
            fill: #ffffff;
        }
        .st2 {
            fill-rule: evenodd;
            clip-rule: evenodd;
            fill: #4285f4;
        }
        .st3 {
            fill-rule: evenodd;
            clip-rule: evenodd;
            fill: #e9f0fd;
        }
        .st4 {
            fill: #ea4335;
        }
        .st5 {
            fill: #4285f4;
        }
        .st6 {
            fill: #fbbc04;
        }
        .st7 {
            fill: #0f9d58;
        }
        .st8 {
            fill: #676c72;
        }
        .st9 {
            fill: #fdefc3;
        }
        .st10 {
            opacity: 0.2;
            filter: url(#AI_Shadow_3);
        }
        .st11 {
            fill: #cccccc;
        }
        .st12 {
            fill: #669df6;
        }
        .st13 {
            fill: none;
            stroke: #ff9800;
            stroke-width: 1.4736;
            stroke-miterlimit: 10;
        }
        .st14 {
            clip-path: url(#SVGID_00000160159045775582472910000018024789785440301470_);
        }
        .st15 {
            fill: #bdc1c6;
        }
        .st16 {
            fill: #f7f8f9;
        }
        .st17 {
            opacity: 0.1;
            fill: url(#SVGID_00000179638527282787415140000001691044171817320321_);
        }
        .st18 {
            fill: none;
            stroke: #bdc0c4;
            stroke-width: 3;
            stroke-miterlimit: 10;
        }
        .st19 {
            clip-path: url(#SVGID_00000119810555919365834830000013519236143836203951_);
            fill: #e8f0fe;
        }
        .st20 {
            clip-path: url(#SVGID_00000119810555919365834830000013519236143836203951_);
        }
        .st21 {
            fill: #c8e6c9;
        }
        .st22 {
            fill: #a5d6a7;
        }
        .st23 {
            fill: #8ab4f8;
        }
        .st24 {
            fill: #d2e3fc;
        }
        .st25 {
            fill: #ffb74d;
        }
        .st26 {
            fill: #d0d2d3;
        }
        .st27 {
            opacity: 0.5;
            fill: url(#SVGID_00000020379066019643271230000002146061475819940257_);
        }
        .st28 {
            opacity: 0.1;
            fill: url(#SVGID_00000059989145239974969330000001138277552154606005_);
        }
        .st29 {
            opacity: 0.3;
        }
        .st30 {
            fill: #acb0b4;
        }
        .st31 {
            fill: #e7e9ec;
        }
        .st32 {
            opacity: 0.3;
            fill: #bdc0c4;
        }
        .st33 {
            clip-path: url(#SVGID_00000031924351214605985410000006738111995828028052_);
            fill: #e8f0fe;
        }
        .st34 {
            clip-path: url(#SVGID_00000031924351214605985410000006738111995828028052_);
        }
        .st35 {
            fill: #3d88f1;
        }
        .st36 {
            fill: #d4e2f9;
        }
        .st37 {
            fill: #3474df;
        }
        .st38 {
            fill: #d85040;
        }
        .st39 {
            fill: #5185eb;
        }
        .st40 {
            fill: #f1bc42;
        }
        .st41 {
            fill: #58a45c;
        }
        .st42 {
            clip-path: url(#SVGID_00000003788542992840542430000005273365854168722349_);
            fill: #f7f8f9;
        }

        .st43 {
            clip-path: url(#SVGID_00000003788542992840542430000005273365854168722349_);
            fill: none;
            stroke: #808589;
            stroke-width: 2;
            stroke-miterlimit: 10;
        }

        .st44 {
            clip-path: url(#SVGID_00000003788542992840542430000005273365854168722349_);
            fill: none;
            stroke: #808589;
            stroke-width: 2;
            stroke-linecap: round;
            stroke-miterlimit: 10;
        }
        .st45 {
            clip-path: url(#SVGID_00000003788542992840542430000005273365854168722349_);
        }
        .st46 {
            fill: #2f68ca;
        }
        .st47 {
            fill: none;
            stroke: #719cee;
            stroke-width: 2;
            stroke-linecap: round;
            stroke-miterlimit: 10;
        }
        .st48 {
            clip-path: url(#SVGID_00000003788542992840542430000005273365854168722349_);
            fill: #808589;
        }
        .st49 {
            fill: #3d4043;
        }
        .st50 {
            fill: #808589;
        }
        .st51 {
            fill: none;
            stroke: #3d4043;
            stroke-width: 2;
            stroke-miterlimit: 10;
        }
        .st52 {
            clip-path: url(#SVGID_00000003788542992840542430000005273365854168722349_);
            fill: #2f68ca;
        }
        .st53 {
            fill: #719cee;
        }
        .st54 {
            fill: none;
            stroke: #5185eb;
            stroke-width: 2;
            stroke-miterlimit: 10;
        }
        .st55 {
            clip-path: url(#SVGID_00000003788542992840542430000005273365854168722349_);
            fill: #ffffff;
        }
        .st56 {
            clip-path: url(#SVGID_00000003788542992840542430000005273365854168722349_);
            fill: #3d4043;
        }

        .st57 {
            clip-path: url(#SVGID_00000003788542992840542430000005273365854168722349_);
            fill: none;
            stroke: #f1bc42;
            stroke-width: 15;
            stroke-miterlimit: 10;
        }
        .st58 {
            fill: none;
            stroke: #808589;
            stroke-width: 2;
            stroke-miterlimit: 10;
        }
        .st59 {
            fill: none;
            stroke: #808589;
            stroke-width: 2;
            stroke-linecap: round;
            stroke-miterlimit: 10;
        }
        .st60 {
            fill: none;
            stroke: #3d4043;
            stroke-width: 2;
            stroke-linecap: round;
            stroke-miterlimit: 10;
        }
    </style>
    <filter
        filterUnits="objectBoundingBox"
        height="130%"
        id="AI_Shadow_3"
        width="140%"
        x="-15%"
        y="-15%"
    >
        <feGaussianBlur in="SourceAlpha" result="blur" stdDeviation="10"></feGaussianBlur>
        <feOffset dx="0" dy="5" in="blur" result="offsetBlurredAlpha"></feOffset>
        <feMerge>
            <feMergeNode in="offsetBlurredAlpha"></feMergeNode>
            <feMergeNode in="SourceGraphic"></feMergeNode>
        </feMerge>
    </filter>
    <g>
        <g>
            <g>
                <g>
                    <g>
                        <g>
                            <g id="svg_shadow_5_" class="st10">
                                <circle class="st11" cx="300" cy="300" r="241.5" />
                            </g>
                            <g>
                                <g>
                                    <ellipse class="st36" cx="300" cy="300" rx="241.4" ry="241.4" />
                                    <path
                                        class="st1"
                                        d="M300,73.6c30.6,0,60.2,6,88.1,17.8c27,11.4,51.2,27.7,72,48.5s37.1,45,48.5,72
									c11.8,27.9,17.8,57.6,17.8,88.1s-6,60.2-17.8,88.1c-11.4,27-27.7,51.2-48.5,72s-45,37.1-72,48.5
									c-27.9,11.8-57.6,17.8-88.1,17.8s-60.2-6-88.1-17.8c-27-11.4-51.2-27.7-72-48.5s-37.1-45-48.5-72
									c-11.8-27.9-17.8-57.6-17.8-88.1s6-60.2,17.8-88.1c11.4-27,27.7-51.2,48.5-72s45-37.1,72-48.5
									C239.8,79.6,269.4,73.6,300,73.6 M300,58.6C166.7,58.6,58.6,166.7,58.6,300S166.7,541.4,300,541.4S541.4,433.3,541.4,300
									S433.3,58.6,300,58.6L300,58.6z"
                                    />
                                </g>
                            </g>
                        </g>
                    </g>
                </g>
            </g>
        </g>
        <g>
            <path
                class="st37"
                d="M246.3,135.8c-5.2-1.7-11-2.6-16.8-2.6c-16.8,0-32,7.6-42.1,19.7l26,21.8L246.3,135.8z"
            />
            <path
                class="st38"
                d="M187.4,152.9c-8,9.5-12.9,21.9-12.9,35.3c0,10.4,2,18.7,5.5,26.2l33.4-39.7L187.4,152.9z"
            />
            <path
                class="st39"
                d="M229.6,167.2c11.7,0,21.1,9.4,21.1,21.1c0,5.1-1.9,9.9-5,13.6c0,0,16.6-19.8,32.8-39
			c-6.7-12.9-18.3-22.7-32.2-27.1l-32.9,38.9C217.3,170.2,223.1,167.2,229.6,167.2"
            />
            <path
                class="st40"
                d="M229.6,209.3c-11.7,0-21.1-9.4-21.1-21.1c0-5.1,1.8-9.9,4.9-13.5L180,214.4c5.7,12.6,15.3,22.9,25,35.7
			l40.7-48.3C241.8,206.4,236.1,209.3,229.6,209.3"
            />
            <path
                class="st41"
                d="M245,263.5c18.4-28.7,39.7-41.7,39.7-75.1c0-9.2-2.3-17.8-6.2-25.4l-73.5,87.2c3.1,4.1,6.3,8.7,9.4,13.5
			c11.2,17.3,8.1,27.6,15.3,27.6S233.8,280.8,245,263.5"
            />
        </g>
        <g>
            <defs>
                <path
                    id="SVGID_00000037685061574870073470000006018532554406689196_"
                    d="M300,73.6c30.6,0,60.2,6,88.1,17.8
				c27,11.4,51.2,27.7,72,48.5s37.1,45,48.5,72c11.8,27.9,17.8,57.6,17.8,88.1s-6,60.2-17.8,88.1c-11.4,27-27.7,51.2-48.5,72
				s-45,37.1-72,48.5c-27.9,11.8-57.6,17.8-88.1,17.8c-30.6,0-60.2-6-88.1-17.8c-27-11.4-51.2-27.7-72-48.5
				c-20.8-20.8-37.1-45-48.5-72c-11.8-27.9-17.8-57.6-17.8-88.1s6-60.2,17.8-88.1c11.4-27,27.7-51.2,48.5-72
				c20.8-20.8,45-37.1,72-48.5C239.8,79.6,269.4,73.6,300,73.6"
                />
            </defs>
            <clipPath id="SVGID_00000154395554692912959330000014121690775564949936_">
                <use
                    xlink:href="#SVGID_00000037685061574870073470000006018532554406689196_"
                    style="overflow: visible"
                />
            </clipPath>
            <path
                style="
                    clip-path: url(#SVGID_00000154395554692912959330000014121690775564949936_);
                    fill: #f7f8f9;
                "
                d="M357.1,114.9
			c-3.8,0-7.4,1.2-10.4,3.2c-5-7.9-13.8-13.1-23.8-13.1c-13.5,0-24.9,9.5-27.6,22.2c-0.7,3.1,1.7,6,4.9,6h69.3c3.5,0,6-3.6,4.7-6.8
			C371.5,119.7,364.8,114.9,357.1,114.9z"
            />
            <path
                style="
                    clip-path: url(#SVGID_00000154395554692912959330000014121690775564949936_);
                    fill: #f7f8f9;
                "
                d="M448.6,191.9
			c-1.5,0-3.1,0.1-4.5,0.4c-1.1-17.7-15.8-31.7-33.8-31.7c-18,0-32.7,14-33.8,31.7c-1.5-0.3-3-0.4-4.5-0.4c-12.8,0-23.5,9.1-26,21.1
			c-0.6,2.8,1.6,5.5,4.5,5.5h119.7c2.9,0,5.1-2.7,4.5-5.5C472.1,200.9,461.4,191.9,448.6,191.9z"
            />
            <path
                style="
                    clip-path: url(#SVGID_00000154395554692912959330000014121690775564949936_);
                    fill: #f7f8f9;
                "
                d="M132.3,247.6
			c-1.7,0-3.4,0.2-5.1,0.4c-1.2-19.9-17.7-35.6-37.9-35.6c-20.2,0-36.7,15.7-37.9,35.6c-1.7-0.3-3.3-0.4-5.1-0.4
			c-14.4,0-26.4,10.2-29.3,23.7c-0.7,3.2,1.8,6.2,5.1,6.2h134.4c3.3,0,5.7-3,5.1-6.2C158.7,257.7,146.7,247.6,132.3,247.6z"
            />

            <line
                style="
                    clip-path: url(#SVGID_00000154395554692912959330000014121690775564949936_);
                    fill: none;
                    stroke: #808589;
                    stroke-width: 2;
                    stroke-miterlimit: 10;
                "
                x1="-26.7"
                y1="448.9"
                x2="39.7"
                y2="448.9"
            />

            <polyline
                style="
                    clip-path: url(#SVGID_00000154395554692912959330000014121690775564949936_);
                    fill: none;
                    stroke: #808589;
                    stroke-width: 2;
                    stroke-linecap: round;
                    stroke-miterlimit: 10;
                "
                points="
			24.6,677.6 24.6,572.2 24.6,462.1 		"
            />
            <g style="clip-path: url(#SVGID_00000154395554692912959330000014121690775564949936_)">
                <path
                    class="st46"
                    d="M222.8,644.6h-62.5c-1.1,0-2-0.9-2-2V422.6c0-1.1,0.9-2,2-2h62.5c1.1,0,2,0.9,2,2v220.1
				C224.8,643.8,223.9,644.6,222.8,644.6z"
                />
                <g>
                    <polyline class="st47" points="172.9,651.2 172.9,545.8 172.9,435.7 				" />
                    <polyline class="st47" points="191,651.2 191,545.8 191,435.7 				" />
                    <polyline class="st47" points="209.1,651.2 209.1,545.8 209.1,435.7 				" />
                </g>
            </g>
            <path
                style="
                    clip-path: url(#SVGID_00000154395554692912959330000014121690775564949936_);
                    fill: #808589;
                "
                d="M24.6,437.6h-36.2
			l4.4-7.5c0.4-0.6,1-1,1.7-1h23.9c0.7,0,1.4,0.4,1.7,1L24.6,437.6z"
            />
            <path
                style="
                    clip-path: url(#SVGID_00000154395554692912959330000014121690775564949936_);
                    fill: #808589;
                "
                d="M131.9,631.8H69.4
			c-1.1,0-2-0.9-2-2V386c0-1.1,0.9-2,2-2h62.5c1.1,0,2,0.9,2,2v243.8C133.9,631,133,631.8,131.9,631.8z"
            />
            <g style="clip-path: url(#SVGID_00000154395554692912959330000014121690775564949936_)">
                <path
                    class="st49"
                    d="M457.6,474.4h-62.5c-1.1,0-2-0.9-2-2V252.3c0-1.1,0.9-2,2-2h62.5c1.1,0,2,0.9,2,2v220.1
				C459.6,473.5,458.7,474.4,457.6,474.4z"
                />
                <path
                    class="st50"
                    d="M454.1,521.8h-55.4c-0.6,0-1-0.4-1-1V255.8c0-0.6,0.4-1,1-1h55.4c0.6,0,1,0.4,1,1v264.9
				C455.1,521.3,454.6,521.8,454.1,521.8z"
                />
                <line class="st51" x1="394.8" y1="283.5" x2="457.3" y2="283.5" />
                <line class="st51" x1="394.8" y1="312.5" x2="457.3" y2="312.5" />
                <line class="st51" x1="394.8" y1="341.5" x2="457.3" y2="341.5" />
                <line class="st51" x1="394.8" y1="371" x2="457.3" y2="371" />
                <line class="st51" x1="394.8" y1="400" x2="457.3" y2="400" />
                <line class="st51" x1="394.8" y1="428.9" x2="457.3" y2="428.9" />
                <line class="st51" x1="394.8" y1="457.9" x2="457.3" y2="457.9" />
                <line class="st51" x1="394.8" y1="486.9" x2="457.3" y2="486.9" />
            </g>
            <g style="clip-path: url(#SVGID_00000154395554692912959330000014121690775564949936_)">
                <path
                    class="st49"
                    d="M131.9,601.7H69.4c-1.1,0-2-0.9-2-2V379.7c0-1.1,0.9-2,2-2h62.5c1.1,0,2,0.9,2,2v220.1
				C133.9,600.8,133,601.7,131.9,601.7z"
                />
                <path
                    class="st50"
                    d="M128.4,606.2H73c-0.6,0-1-0.4-1-1V383.2c0-0.6,0.4-1,1-1h55.4c0.6,0,1,0.4,1,1v222.1
				C129.4,605.8,128.9,606.2,128.4,606.2z"
                />
                <line class="st51" x1="69.1" y1="410.9" x2="131.6" y2="410.9" />
                <line class="st51" x1="69.1" y1="439.8" x2="131.6" y2="439.8" />
                <line class="st51" x1="69.1" y1="468.8" x2="131.6" y2="468.8" />
                <line class="st51" x1="69.1" y1="498.3" x2="131.6" y2="498.3" />
                <line class="st51" x1="69.1" y1="527.3" x2="131.6" y2="527.3" />
                <line class="st51" x1="69.1" y1="556.2" x2="131.6" y2="556.2" />
            </g>
            <path
                style="
                    clip-path: url(#SVGID_00000154395554692912959330000014121690775564949936_);
                    fill: #2f68ca;
                "
                d="M551.9,472.4h-51
			c-1.1,0-2-0.9-2-2V286.1c0-1.1,0.9-2,2-2h51c1.1,0,2,0.9,2,2v184.3C553.9,471.5,553,472.4,551.9,472.4z"
            />
            <g style="clip-path: url(#SVGID_00000154395554692912959330000014121690775564949936_)">
                <path
                    class="st39"
                    d="M485.1,495h-51c-1.1,0-2-0.9-2-2V360.5c0-0.6,0.3-1.2,0.8-1.6l51-37.7c1.3-1,3.2,0,3.2,1.6V493
				C487.1,494.1,486.2,495,485.1,495z"
                />
                <polygon class="st53" points="487.1,501.9 432.1,501.9 432.1,366.3 487.1,325.6 			" />
                <rect x="457.3" y="342.4" class="st39" width="4.5" height="159.4" />
                <line class="st54" x1="432.1" y1="366.3" x2="487.1" y2="366.3" />
                <line class="st54" x1="461.9" y1="341.1" x2="487.1" y2="341.1" />
                <line class="st54" x1="432.1" y1="391.6" x2="487.1" y2="391.6" />
                <line class="st54" x1="432.1" y1="416.9" x2="487.1" y2="416.9" />
                <line class="st54" x1="432.1" y1="442.1" x2="487.1" y2="442.1" />
                <line class="st54" x1="432.1" y1="467.4" x2="487.1" y2="467.4" />
                <line class="st54" x1="432.1" y1="490.9" x2="487.1" y2="490.9" />
            </g>
            <g style="clip-path: url(#SVGID_00000154395554692912959330000014121690775564949936_)">
                <path
                    class="st49"
                    d="M253.4,637.4h-51c-1.1,0-2-0.9-2-2V502.9c0-0.6,0.3-1.2,0.8-1.6l51-37.7c1.3-1,3.2,0,3.2,1.6v170.3
				C255.4,636.5,254.5,637.4,253.4,637.4z"
                />
                <polygon class="st50" points="255.4,644.3 200.4,644.3 200.4,508.8 255.4,468 			" />
                <rect x="225.7" y="484.9" class="st49" width="4.5" height="159.4" />
                <line class="st51" x1="200.4" y1="508.8" x2="255.4" y2="508.8" />
                <line class="st51" x1="230.2" y1="483.5" x2="255.4" y2="483.5" />
                <line class="st51" x1="200.4" y1="534" x2="255.4" y2="534" />
                <line class="st51" x1="200.4" y1="559.3" x2="255.4" y2="559.3" />
                <line class="st51" x1="200.4" y1="584.5" x2="255.4" y2="584.5" />
            </g>

            <rect
                x="555.2"
                y="389.8"
                style="
                    clip-path: url(#SVGID_00000154395554692912959330000014121690775564949936_);
                    fill: #ffffff;
                "
                width="25.3"
                height="25.3"
            />

            <polygon
                style="
                    clip-path: url(#SVGID_00000154395554692912959330000014121690775564949936_);
                    fill: none;
                    stroke: #808589;
                    stroke-width: 2;
                    stroke-miterlimit: 10;
                "
                points="
			426.4,211.9 412,245.8 440.7,245.8 		"
            />
            <path
                style="
                    clip-path: url(#SVGID_00000154395554692912959330000014121690775564949936_);
                    fill: #808589;
                "
                d="M444.4,250.3h-36
			c-0.6,0-1-0.4-1-1v-2.5c0-0.6,0.4-1,1-1h36c0.6,0,1,0.4,1,1v2.5C445.4,249.9,444.9,250.3,444.4,250.3z"
            />

            <polyline
                style="
                    clip-path: url(#SVGID_00000154395554692912959330000014121690775564949936_);
                    fill: none;
                    stroke: #808589;
                    stroke-width: 2;
                    stroke-linecap: round;
                    stroke-miterlimit: 10;
                "
                points="
			426.4,245.8 426.4,211.9 426.4,176.6 		"
            />

            <circle
                style="
                    clip-path: url(#SVGID_00000154395554692912959330000014121690775564949936_);
                    fill: #3d4043;
                "
                cx="426.4"
                cy="205.6"
                r="2.5"
            />

            <circle
                style="
                    clip-path: url(#SVGID_00000154395554692912959330000014121690775564949936_);
                    fill: #3d4043;
                "
                cx="426.4"
                cy="232.8"
                r="2.5"
            />

            <circle
                style="
                    clip-path: url(#SVGID_00000154395554692912959330000014121690775564949936_);
                    fill: #808589;
                "
                cx="426.4"
                cy="195.5"
                r="2.5"
            />

            <circle
                style="
                    clip-path: url(#SVGID_00000154395554692912959330000014121690775564949936_);
                    fill: #808589;
                "
                cx="426.4"
                cy="185.3"
                r="2.5"
            />

            <path
                style="
                    clip-path: url(#SVGID_00000154395554692912959330000014121690775564949936_);
                    fill: none;
                    stroke: #f1bc42;
                    stroke-width: 15;
                    stroke-miterlimit: 10;
                "
                d="
			M20.1,317c65.2-11.8,94.4,7.5,135.7,30.8c26.7,15,53,33.2,83.5,36.8c58.6,6.8,110.3-42.1,169.1-45.7c28.9-1.7,57.5,7.8,82.7,22.1
			c25.1,14.3,47.2,33.3,69.2,52.2"
            />
            <g style="clip-path: url(#SVGID_00000154395554692912959330000014121690775564949936_)">
                <path
                    class="st49"
                    d="M341.8,562.1h-62.5c-1.1,0-2-0.9-2-2V316.3c0-1.1,0.9-2,2-2h62.5c1.1,0,2,0.9,2,2v243.8
				C343.8,561.2,342.9,562.1,341.8,562.1z"
                />
                <line class="st58" x1="277.3" y1="325.6" x2="343.8" y2="325.6" />
                <polyline class="st59" points="292.4,554.3 292.4,448.9 292.4,338.8 			" />
                <polyline class="st59" points="310.5,554.3 310.5,448.9 310.5,338.8 			" />
                <polyline class="st59" points="328.6,554.3 328.6,448.9 328.6,338.8 			" />
                <path
                    class="st50"
                    d="M328.6,314.3h-36.2l4.4-7.5c0.4-0.6,1-1,1.7-1h23.9c0.7,0,1.4,0.4,1.7,1L328.6,314.3z"
                />
            </g>
            <g style="clip-path: url(#SVGID_00000154395554692912959330000014121690775564949936_)">
                <path
                    class="st39"
                    d="M386.4,438.7h-36c-0.6,0-1-0.4-1-1v-2.5c0-0.6,0.4-1,1-1h36c0.6,0,1,0.4,1,1v2.5
				C387.4,438.2,387,438.7,386.4,438.7z"
                />
                <polyline class="st60" points="368.5,407.5 368.5,373.6 368.5,373.6 			" />
                <path
                    class="st53"
                    d="M399.7,676.2h-62.5c-1.1,0-2-0.9-2-2V440.3c0-1.1,0.9-2,2-2h62.5c1.1,0,2,0.9,2,2v233.9
				C401.7,675.3,400.8,676.2,399.7,676.2z"
                />
                <path
                    class="st39"
                    d="M371.2,434.2h-5.5v-23.9c0-1.5,1.2-2.8,2.8-2.8l0,0c1.5,0,2.8,1.2,2.8,2.8V434.2z"
                />
                <line class="st54" x1="335.2" y1="454.6" x2="401.7" y2="454.6" />
                <rect x="363.7" y="454.6" class="st39" width="9.6" height="281.8" />
            </g>
        </g>
    </g>
</svg>
