<?xml version="1.0" encoding="UTF-8"?>
<svg xmlns="http://www.w3.org/2000/svg" xmlns:xlink="http://www.w3.org/1999/xlink" version="1.1" viewBox="0 0 600 600">
  <defs>
    <style>
      .cls-1, .cls-2 {
        fill: none;
      }

      .cls-3 {
        fill: #4285f4;
      }

      .cls-4 {
        fill: #34a853;
      }

      .cls-5 {
        fill: #fbbc04;
      }

      .cls-6 {
        fill: #fff;
      }

      .cls-7 {
        fill: #ea4335;
      }

      .cls-8 {
        fill: #cbcbcb;
      }

      .cls-9 {
        filter: url(#AI_Shadow_3);
        opacity: .2;
      }

      .cls-10 {
        clip-path: url(#clippath);
      }

      .cls-2 {
        stroke: #58a65c;
        stroke-miterlimit: 10;
        stroke-width: 9px;
      }
    </style>
    <filter id="AI_Shadow_3" x="-15%" y="-15%" width="140%" height="130%">
      <feGaussianBlur in="SourceAlpha" result="blur" stdDeviation="10"/>
      <feOffset dx="0" dy="5" in="blur" result="offsetBlurredAlpha"/>
      <feMerge>
        <feMergeNode in="offsetBlurredAlpha"/>
        <feMergeNode in="SourceGraphic"/>
      </feMerge>
    </filter>
    <clipPath id="clippath">
      <path class="cls-1" d="M300,73.5c30.6,0,60.2,6,88.2,17.8,27,11.4,51.2,27.7,72,48.5s37.1,45,48.5,72c11.8,27.9,17.8,57.6,17.8,88.2s-6,60.2-17.8,88.2c-11.4,27-27.7,51.2-48.5,72s-45,37.1-72,48.5c-27.9,11.8-57.6,17.8-88.2,17.8s-60.2-6-88.2-17.8c-27-11.4-51.2-27.7-72-48.5-20.8-20.8-37.1-45-48.5-72-11.8-27.9-17.8-57.6-17.8-88.2s6-60.2,17.8-88.2c11.4-27,27.7-51.2,48.5-72,20.8-20.8,45-37.1,72-48.5,27.9-11.8,57.6-17.8,88.2-17.8"/>
    </clipPath>
  </defs>
  <!-- Generator: Adobe Illustrator 28.7.1, SVG Export Plug-In . SVG Version: 1.2.0 Build 142)  -->
  <g>
    <g id="Layer_1">
      <g>
        <g id="svg_shadow" class="cls-9">
          <circle class="cls-8" cx="299.5" cy="300" r="239.7"/>
        </g>
        <g id="base">
          <g>
            <circle cx="300" cy="300" r="241.5"/>
            <path class="cls-6" d="M300,73.5c30.6,0,60.2,6,88.2,17.8,27,11.4,51.2,27.7,72,48.5s37.1,45,48.5,72c11.8,27.9,17.8,57.6,17.8,88.2s-6,60.2-17.8,88.2c-11.4,27-27.7,51.2-48.5,72s-45,37.1-72,48.5c-27.9,11.8-57.6,17.8-88.2,17.8s-60.2-6-88.2-17.8c-27-11.4-51.2-27.7-72-48.5-20.8-20.8-37.1-45-48.5-72-11.8-27.9-17.8-57.6-17.8-88.2s6-60.2,17.8-88.2c11.4-27,27.7-51.2,48.5-72,20.8-20.8,45-37.1,72-48.5,27.9-11.8,57.6-17.8,88.2-17.8M300,58.5c-133.4,0-241.5,108.1-241.5,241.5s108.1,241.5,241.5,241.5,241.5-108.1,241.5-241.5S433.4,58.5,300,58.5h0Z"/>
          </g>
        </g>
        <g class="cls-10">
          <path class="cls-2" d="M-257.2-89.4L-126.1-30.9M-187.5-58.3L-56.4.2M-232.4-145.8L-25.9-53.7C5.6-39.6,19.8-3.1,6,28c-13.9,31.1-50.6,44.9-82,30.8l-206.5-92.1M-207.2-202.3L-1-110.3C62.1-82.2,90.7-8.9,62.9,53.4h0c-27.8,62.3-101.4,90-164.5,61.8L-307.8,23.2"/>
          <rect class="cls-3" x="251" y="481.8" width="258.7" height="116.4" transform="translate(68.9 -42.5) rotate(7)"/>
          <circle class="cls-5" cx="50.9" cy="231.5" r="114.1"/>
          <path class="cls-7" d="M416.8,172l-5-.4,7.8-105c2.3-30.7-20.5-57.5-50.8-59.7-30.3-2.3-56.8,20.9-59.1,51.6l-7.8,105-5-.4,7.8-105c2.5-33.4,31.4-58.6,64.4-56.2,33,2.5,57.9,31.6,55.4,65.1l-7.8,105ZM388,169.9l-5-.4,7.8-105.1c.5-7.1-1.7-13.9-6.3-19.3-4.6-5.4-10.9-8.6-17.9-9.1-7-.5-13.7,1.7-19,6.4-5.3,4.6-8.5,11.1-9.1,18.2l-7.8,105.2-5-.4,7.8-105.1c.6-8.4,4.4-16.1,10.8-21.6,6.3-5.5,14.4-8.2,22.7-7.6,8.3.6,15.9,4.5,21.3,10.9,5.4,6.4,8.1,14.5,7.5,22.9l-7.8,105.1ZM359.4,167.6l-5-.4,7.6-102.2,5,.4-7.6,102.2Z"/>
        </g>
        <circle class="cls-4" cx="300" cy="104.8" r="18.4"/>
        <rect class="cls-4" x="430.1" y="303.9" width="73.6" height="5" transform="translate(-81.8 202.6) rotate(-22.6)"/>
        <path class="cls-6" d="M389.6,379.3h0c-43.2,0-78.4-35.2-78.4-78.4s35.1-78.3,78.3-78.4h0v-10.7h-178.1v10.8h135.7c-8.8,4.8-16.6,10.9-23.3,18.2h-112.4v149.3h10.8v-138.6h18.9v138.4h0c0,.1,148.5.1,148.5.1v-10.8h0ZM251.9,251.5h63.5c-5.9,8.8-10.2,18.8-12.7,29.4h-50.8v-29.4ZM251.9,291.7h49.1c-.3,3-.5,6.1-.5,9.2s.2,6.1.5,9h-49.1v-18.2ZM251.9,320.7h50.8c2.4,10.7,6.8,20.7,12.7,29.6h-63.5v-29.6ZM251.9,361h72c6.7,7.3,14.5,13.5,23.3,18.2h-95.3v-18.2ZM389.6,249.5c-28.3,0-51.3,23.1-51.3,51.4s23,51.3,51.3,51.4v10.8c-34.3,0-62.1-27.8-62.1-62.1s27.8-62.1,62.1-62.1v10.8ZM365.3,300.9c0,13.4,10.9,24.3,24.3,24.3v10.8c-19.4,0-35.1-15.7-35.1-35.1s15.7-35.1,35.1-35.1v10.8c-13.4,0-24.3,10.9-24.3,24.3Z"/>
        <rect class="cls-4" x="439.1" y="327.5" width="73.6" height="5" transform="translate(-90.2 207.8) rotate(-22.6)"/>
        <path class="cls-7" d="M256,493.3c-13.7,0-24.9-11.2-24.9-24.9s11.2-24.9,24.9-24.9,24.9,11.2,24.9,24.9-11.2,24.9-24.9,24.9ZM256,448.6c-11,0-19.9,8.9-19.9,19.9s8.9,19.9,19.9,19.9,19.9-8.9,19.9-19.9-8.9-19.9-19.9-19.9Z"/>
      </g>
    </g>
  </g>
</svg>