<svg xmlns="http://www.w3.org/2000/svg" width="600" height="600" fill="none">
    <g filter="url(#a)">
        <path
            fill="#F1F3F4"
            d="M300 542c133.653 0 242-108.347 242-242 0-133.653-108.347-242-242-242C166.347 58 58 166.347 58 300c0 133.653 108.347 242 242 242Z"
        />
        <path
            stroke="#fff"
            stroke-width="16"
            d="M300 534c129.235 0 234-104.765 234-234S429.235 66 300 66 66 170.765 66 300s104.765 234 234 234Z"
        />
        <g clip-path="url(#b)">
            <circle cx="300" cy="300" r="160" fill="url(#c)" />
            <path fill="#000" d="m174.619 301.531 49.06-49.06 15.873 15.872-49.06 49.06z" />
            <path
                fill="#000"
                d="m174.619 301.83 49.06 49.06 15.873-15.872-49.06-49.06zm253.945-.299-49.06-49.06-15.873 15.872 49.06 49.06z"
            />
            <path
                fill="#000"
                d="m428.564 301.83-49.06 49.06-15.873-15.872 49.06-49.06zm-119.646-64.324h23.808l-40.813 119.718h-23.808l40.813-119.718Z"
            />
        </g>
    </g>
    <defs>
        <linearGradient
            id="c"
            x1="188.941"
            x2="411.059"
            y1="422.729"
            y2="186.118"
            gradientUnits="userSpaceOnUse"
        >
            <stop stop-color="#34A853" />
            <stop offset="1" stop-color="#FBBC04" />
        </linearGradient>
        <clipPath id="b"><path fill="#fff" d="M140 140h320v320H140z" /></clipPath>
        <filter
            id="a"
            width="508"
            height="508"
            x="46"
            y="50"
            color-interpolation-filters="sRGB"
            filterUnits="userSpaceOnUse"
        >
            <feFlood flood-opacity="0" result="BackgroundImageFix" />
            <feColorMatrix
                in="SourceAlpha"
                result="hardAlpha"
                values="0 0 0 0 0 0 0 0 0 0 0 0 0 0 0 0 0 0 127 0"
            />
            <feOffset dy="4" />
            <feGaussianBlur stdDeviation="6" />
            <feColorMatrix
                values="0 0 0 0 0.235294 0 0 0 0 0.25098 0 0 0 0 0.262745 0 0 0 0.15 0"
            />
            <feBlend in2="BackgroundImageFix" result="effect1_dropShadow_2745_7327" />
            <feBlend in="SourceGraphic" in2="effect1_dropShadow_2745_7327" result="shape" />
        </filter>
    </defs>
</svg>
