<?xml version="1.0" encoding="UTF-8"?>
<svg
    xmlns="http://www.w3.org/2000/svg"
    xmlns:xlink="http://www.w3.org/1999/xlink"
    viewBox="0 0 600 600"
>
    <defs>
        <style>
            .cls-1 {
                fill: #fff;
            }

            .cls-2 {
                fill: url(#radial-gradient);
            }

            .cls-3 {
                fill: #e64231;
            }

            .cls-4 {
                fill: #ffcd2c;
            }

            .cls-5 {
                fill: #f1f3f4;
            }

            .cls-6 {
                fill: #ccc;
            }

            .cls-7 {
                fill: #ffbd29;
            }

            .cls-8 {
                filter: url(#AI_Shadow_3);
                opacity: 0.2;
            }

            .cls-9 {
                fill: #4284ef;
            }

            .cls-10 {
                fill: #31ad5a;
            }

            .cls-11 {
                fill: url(#linear-gradient);
            }
        </style>
        <filter id="AI_Shadow_3" x="-15%" y="-15%" width="140%" height="130%">
            <feGaussianBlur in="SourceAlpha" result="blur" stdDeviation="10" />
            <feOffset dx="0" dy="5" in="blur" result="offsetBlurredAlpha" />
            <feMerge>
                <feMergeNode in="offsetBlurredAlpha" />
                <feMergeNode in="SourceGraphic" />
            </feMerge>
        </filter>
        <radialGradient
            id="radial-gradient"
            cx="282.98"
            cy="312.58"
            fx="320.48"
            fy="278.36"
            r="234"
            gradientUnits="userSpaceOnUse"
        >
            <stop offset=".06" stop-color="#9aa0a6" />
            <stop offset=".35" stop-color="#9aa0a6" stop-opacity=".63" />
            <stop offset=".65" stop-color="#9aa0a6" stop-opacity=".29" />
            <stop offset=".88" stop-color="#9aa0a6" stop-opacity=".08" />
            <stop offset="1" stop-color="#9aa0a6" stop-opacity="0" />
        </radialGradient>
        <linearGradient
            id="linear-gradient"
            x1="256.54"
            y1="445.22"
            x2="320.13"
            y2="363.44"
            gradientUnits="userSpaceOnUse"
        >
            <stop offset="0" stop-color="#ffbd29" />
            <stop offset=".17" stop-color="#eeac1f" />
            <stop offset=".4" stop-color="#dd9c16" />
            <stop offset=".66" stop-color="#d49310" />
            <stop offset="1" stop-color="#d1900f" />
        </linearGradient>
    </defs>
    <g id="base_and_svg_shadow">
        <g id="svg_shadow" class="cls-8">
            <circle class="cls-6" cx="300" cy="300" r="241.5" />
        </g>
        <g id="base">
            <g>
                <path
                    class="cls-5"
                    d="M300.5,534c-62.5,0-121.27-24.34-165.46-68.54-44.2-44.2-68.54-102.96-68.54-165.46s24.34-121.27,68.54-165.46,102.96-68.54,165.46-68.54,121.27,24.34,165.46,68.54,68.54,102.96,68.54,165.46-24.34,121.27-68.54,165.46c-44.2,44.2-102.96,68.54-165.46,68.54Z"
                />
                <path
                    class="cls-1"
                    d="M300.5,73.5c30.58,0,60.25,5.99,88.16,17.79,26.97,11.41,51.19,27.74,72,48.55s37.14,45.03,48.55,72c11.81,27.91,17.79,57.58,17.79,88.16s-5.99,60.24-17.79,88.16c-11.41,26.97-27.74,51.19-48.55,72-20.81,20.81-45.03,37.14-72,48.55-27.91,11.81-57.58,17.79-88.16,17.79s-60.25-5.99-88.16-17.79c-26.97-11.41-51.19-27.74-72-48.55-20.81-20.81-37.14-45.03-48.55-72-11.81-27.91-17.79-57.58-17.79-88.16s5.99-60.24,17.79-88.16c11.41-26.97,27.74-51.19,48.55-72s45.03-37.14,72-48.55c27.91-11.81,57.58-17.79,88.16-17.79M300.5,58.5c-133.38,0-241.5,108.12-241.5,241.5s108.12,241.5,241.5,241.5,241.5-108.12,241.5-241.5S433.88,58.5,300.5,58.5h0Z"
                />
            </g>
        </g>
    </g>
    <g id="Layer_2">
        <g>
            <path
                class="cls-2"
                d="M485.91,245.6c0,20.81-22.8,37.76-28.9,56.54-6.32,19.47,1.94,46.55-9.85,62.75-11.9,16.36-40.29,16.81-56.66,28.72-.01,0-.01.01-.02.02l48.36,131.24-70.81-12.69-.41-.13-53.93,58.94-35.94-97.55-57.44,100.54-43.46-67.04-.42.06-71.93.82,66.77-116.88c-16.66-9.42-41.53-11.01-52.48-26.05-11.79-16.2-3.52-43.28-9.84-62.75-6.1-18.78-28.9-35.73-28.9-56.54s22.8-37.77,28.9-56.55c6.32-19.47-1.95-46.55,9.85-62.75,11.9-16.36,40.29-16.81,56.66-28.72,16.2-11.79,25.33-38.72,44.8-45.04,18.78-6.09,41.91,10.12,62.72,10.12s43.94-16.21,62.72-10.12c19.47,6.32,28.6,33.25,44.8,45.04,16.37,11.91,44.76,12.36,56.66,28.72,11.79,16.2,3.53,43.28,9.85,62.75,6.1,18.78,28.9,35.73,28.9,56.55Z"
            />
            <g>
                <polygon
                    class="cls-4"
                    points="331.06 400.71 235.31 568.32 191.85 501.28 191.43 501.34 119.5 502.16 215.24 334.56 331.06 400.71"
                />
                <polygon
                    class="cls-7"
                    points="331.05 400.71 329.84 402.83 283.64 483.71 235.31 568.32 191.86 501.27 191.43 501.34 251.43 396.31 261.38 378.9 269.12 365.34 280.52 371.85 328.53 399.27 331.05 400.71"
                />
            </g>
            <g>
                <polygon
                    class="cls-11"
                    points="329.84 402.83 283.64 483.71 251.43 396.31 246.97 384.21 261.38 378.9 280.52 371.85 313.89 359.55 328.53 399.27 329.84 402.83"
                />
                <polygon
                    class="cls-7"
                    points="261.95 384.21 328.69 565.33 382.62 506.38 383.03 506.51 453.84 519.21 387.1 338.09 261.95 384.21"
                />
                <polygon
                    class="cls-4"
                    points="261.95 384.21 328.69 565.33 382.62 506.38 383.03 506.51 328.87 359.55 261.95 384.21"
                />
            </g>
            <path
                class="cls-4"
                d="M500.91,239.93c0,20.81-22.81,37.77-28.9,56.55-6.32,19.46,1.95,46.54-9.84,62.75s-40.3,16.81-56.66,28.72c-16.2,11.79-25.34,38.72-44.8,45.04-18.78,6.1-41.91-10.12-62.72-10.12s-43.94,16.22-62.72,10.12c-19.46-6.32-28.6-33.25-44.8-45.04s-44.75-12.36-56.66-28.72-3.52-43.28-9.84-62.74c-6.1-18.78-28.9-35.73-28.9-56.55s22.81-37.77,28.9-56.55-1.95-46.54,9.84-62.75c11.91-16.36,40.3-16.81,56.66-28.72,16.2-11.79,25.34-38.72,44.8-45.04s41.91,10.12,62.72,10.12,43.94-16.22,62.72-10.12,28.6,33.25,44.8,45.04,44.75,12.36,56.66,28.72c11.79,16.2,3.52,43.28,9.84,62.74s28.9,35.73,28.9,56.55Z"
            />
            <circle class="cls-1" cx="297.98" cy="239.93" r="163.69" />
            <g>
                <g>
                    <path
                        class="cls-7"
                        d="M332.34,151.74c-10.05,0-18.22-8.17-18.22-18.22s8.17-18.22,18.22-18.22,18.22,8.17,18.22,18.22-8.17,18.22-18.22,18.22ZM332.34,123.37c-5.6,0-10.15,4.55-10.15,10.15s4.55,10.15,10.15,10.15,10.15-4.55,10.15-10.15-4.55-10.15-10.15-10.15Z"
                    />
                    <path
                        class="cls-7"
                        d="M332.34,151.9c-10.13,0-18.38-8.24-18.38-18.38s8.24-18.38,18.38-18.38,18.38,8.24,18.38,18.38-8.24,18.38-18.38,18.38ZM332.34,123.53c-5.51,0-9.99,4.48-9.99,9.99s4.48,9.99,9.99,9.99,9.99-4.48,9.99-9.99-4.48-9.99-9.99-9.99Z"
                    />
                </g>
                <path
                    class="cls-9"
                    d="M427.52,278.49h-161.82c-2.23,0-4.04-1.81-4.04-4.04v-143.45c0-2.23,1.81-4.04,4.04-4.04s4.04,1.81,4.04,4.04v139.41h157.79c2.23,0,4.04,1.81,4.04,4.04s-1.81,4.04-4.04,4.04Z"
                />
                <path
                    class="cls-3"
                    d="M332.34,289.68c-15.21,0-27.59-12.38-27.59-27.59s12.38-27.59,27.59-27.59,27.59,12.38,27.59,27.59-12.38,27.59-27.59,27.59ZM332.34,242.57c-10.76,0-19.52,8.76-19.52,19.52s8.76,19.52,19.52,19.52,19.52-8.76,19.52-19.52-8.76-19.52-19.52-19.52Z"
                />
                <path
                    class="cls-10"
                    d="M287.5,257.43c-.97,0-1.94-.34-2.71-1.04-1.65-1.5-1.78-4.05-.28-5.7l110.45-121.9c1.5-1.65,4.05-1.78,5.7-.28,1.65,1.5,1.78,4.05.28,5.7l-110.45,121.9c-.8.88-1.89,1.33-2.99,1.33Z"
                />
                <path
                    class="cls-10"
                    d="M384.67,184.05c7.95,0,14.41,6.47,14.41,14.41s-6.46,14.42-14.41,14.42-14.41-6.47-14.41-14.42,6.46-14.41,14.41-14.41Z"
                />
                <path
                    class="cls-9"
                    d="M393.37,323.68h-169.16c-2.23,0-4.04-1.81-4.04-4.04s1.81-4.04,4.04-4.04h169.16c2.23,0,4.04,1.81,4.04,4.04s-1.81,4.04-4.04,4.04Z"
                />
                <path
                    class="cls-9"
                    d="M393.37,353.16h-169.16c-2.23,0-4.04-1.81-4.04-4.04s1.81-4.04,4.04-4.04h169.16c2.23,0,4.04,1.81,4.04,4.04s-1.81,4.04-4.04,4.04Z"
                />
                <rect
                    class="cls-7"
                    x="245.43"
                    y="301.87"
                    width="17.69"
                    height="31.18"
                    rx="8.84"
                    ry="8.84"
                />
                <rect
                    class="cls-7"
                    x="287.5"
                    y="333.54"
                    width="17.69"
                    height="31.18"
                    rx="8.84"
                    ry="8.84"
                />
                <path
                    class="cls-9"
                    d="M211.64,276.52c-15.82,0-28.69-12.87-28.69-28.69v-91.67c0-15.82,12.87-28.69,28.69-28.69s28.69,12.87,28.69,28.69v91.67c0,15.82-12.87,28.69-28.69,28.69ZM211.64,135.53c-11.37,0-20.62,9.25-20.62,20.62v91.67c0,11.37,9.25,20.62,20.62,20.62s20.62-9.25,20.62-20.62v-91.67c0-11.37-9.25-20.62-20.62-20.62Z"
                />
                <rect
                    class="cls-3"
                    x="196.98"
                    y="190.52"
                    width="28.41"
                    height="70.1"
                    rx="14.2"
                    ry="14.2"
                />
            </g>
        </g>
    </g>
</svg>
