<?xml version="1.0" encoding="UTF-8"?>
<svg
    xmlns="http://www.w3.org/2000/svg"
    xmlns:xlink="http://www.w3.org/1999/xlink"
    viewBox="0 0 600 600"
>
    <defs>
        <style>
            .cls-1 {
                fill: #fff;
            }

            .cls-2 {
                fill: #1a73e8;
            }

            .cls-3 {
                fill: url(#radial-gradient);
            }

            .cls-4 {
                fill: #e64231;
            }

            .cls-5 {
                fill: #ffcd2c;
            }

            .cls-6 {
                fill: #f1f3f4;
            }

            .cls-7 {
                fill: #ccc;
            }

            .cls-8 {
                fill: #ffbd29;
            }

            .cls-9 {
                filter: url(#AI_Shadow_3);
                opacity: 0.2;
            }

            .cls-10 {
                fill: #31ad5a;
            }

            .cls-11 {
                fill: url(#linear-gradient);
            }
        </style>
        <filter id="AI_Shadow_3" x="-15%" y="-15%" width="140%" height="130%">
            <feGaussianBlur in="SourceAlpha" result="blur" stdDeviation="10" />
            <feOffset dx="0" dy="5" in="blur" result="offsetBlurredAlpha" />
            <feMerge>
                <feMergeNode in="offsetBlurredAlpha" />
                <feMergeNode in="SourceGraphic" />
            </feMerge>
        </filter>
        <radialGradient
            id="radial-gradient"
            cx="282.98"
            cy="312.58"
            fx="320.48"
            fy="278.36"
            r="234"
            gradientUnits="userSpaceOnUse"
        >
            <stop offset=".06" stop-color="#9aa0a6" />
            <stop offset=".35" stop-color="#9aa0a6" stop-opacity=".63" />
            <stop offset=".65" stop-color="#9aa0a6" stop-opacity=".29" />
            <stop offset=".88" stop-color="#9aa0a6" stop-opacity=".08" />
            <stop offset="1" stop-color="#9aa0a6" stop-opacity="0" />
        </radialGradient>
        <linearGradient
            id="linear-gradient"
            x1="256.54"
            y1="445.22"
            x2="320.13"
            y2="363.44"
            gradientUnits="userSpaceOnUse"
        >
            <stop offset="0" stop-color="#ffbd29" />
            <stop offset=".17" stop-color="#eeac1f" />
            <stop offset=".4" stop-color="#dd9c16" />
            <stop offset=".66" stop-color="#d49310" />
            <stop offset="1" stop-color="#d1900f" />
        </linearGradient>
    </defs>
    <g id="base_and_svg_shadow">
        <g id="svg_shadow" class="cls-9">
            <circle class="cls-7" cx="300" cy="300" r="241.5" />
        </g>
        <g id="base">
            <g>
                <path
                    class="cls-6"
                    d="M300.5,534c-62.5,0-121.27-24.34-165.46-68.54-44.2-44.2-68.54-102.96-68.54-165.46s24.34-121.27,68.54-165.46c44.2-44.2,102.96-68.54,165.46-68.54s121.27,24.34,165.46,68.54c44.2,44.2,68.54,102.96,68.54,165.46s-24.34,121.27-68.54,165.46c-44.2,44.2-102.96,68.54-165.46,68.54Z"
                />
                <path
                    class="cls-1"
                    d="M300.5,73.5c30.58,0,60.25,5.99,88.16,17.79,26.97,11.41,51.19,27.74,72,48.55s37.14,45.03,48.55,72c11.81,27.91,17.79,57.58,17.79,88.16s-5.99,60.24-17.79,88.16c-11.41,26.97-27.74,51.19-48.55,72-20.81,20.81-45.03,37.14-72,48.55-27.91,11.81-57.58,17.79-88.16,17.79s-60.25-5.99-88.16-17.79c-26.97-11.41-51.19-27.74-72-48.55-20.81-20.81-37.14-45.03-48.55-72-11.81-27.91-17.79-57.58-17.79-88.16s5.99-60.24,17.79-88.16c11.41-26.97,27.74-51.19,48.55-72s45.03-37.14,72-48.55c27.91-11.81,57.58-17.79,88.16-17.79M300.5,58.5c-133.38,0-241.5,108.12-241.5,241.5s108.12,241.5,241.5,241.5,241.5-108.12,241.5-241.5S433.88,58.5,300.5,58.5h0Z"
                />
            </g>
        </g>
    </g>
    <g id="Layer_10">
        <path
            class="cls-3"
            d="M485.91,245.6c0,20.81-22.8,37.76-28.9,56.54-6.32,19.47,1.94,46.55-9.85,62.75-11.9,16.36-40.29,16.81-56.66,28.72-.01,0-.01.01-.02.02l48.36,131.24-70.81-12.69-.41-.13-53.93,58.94-35.94-97.55-57.44,100.54-43.46-67.04-.42.06-71.93.82,66.77-116.88c-16.66-9.42-41.53-11.01-52.48-26.05-11.79-16.2-3.52-43.28-9.84-62.75-6.1-18.78-28.9-35.73-28.9-56.54s22.8-37.77,28.9-56.55c6.32-19.47-1.95-46.55,9.85-62.75,11.9-16.36,40.29-16.81,56.66-28.72,16.2-11.79,25.33-38.72,44.8-45.04,18.78-6.09,41.91,10.12,62.72,10.12s43.94-16.21,62.72-10.12c19.47,6.32,28.6,33.25,44.8,45.04,16.37,11.91,44.76,12.36,56.66,28.72,11.79,16.2,3.53,43.28,9.85,62.75,6.1,18.78,28.9,35.73,28.9,56.55Z"
        />
        <g>
            <polygon
                class="cls-5"
                points="331.06 400.71 235.31 568.32 191.85 501.28 191.43 501.34 119.5 502.16 215.24 334.56 331.06 400.71"
            />
            <polygon
                class="cls-8"
                points="331.05 400.71 329.84 402.83 283.64 483.71 235.31 568.32 191.86 501.27 191.43 501.34 251.43 396.31 261.38 378.9 269.12 365.34 280.52 371.85 328.53 399.27 331.05 400.71"
            />
        </g>
        <g>
            <polygon
                class="cls-11"
                points="329.84 402.83 283.64 483.71 251.43 396.31 246.97 384.21 261.38 378.9 280.52 371.85 313.89 359.55 328.53 399.27 329.84 402.83"
            />
            <polygon
                class="cls-8"
                points="261.95 384.21 328.69 565.33 382.62 506.38 383.03 506.51 453.84 519.21 387.1 338.09 261.95 384.21"
            />
            <polygon
                class="cls-5"
                points="261.95 384.21 328.69 565.33 382.62 506.38 383.03 506.51 328.87 359.55 261.95 384.21"
            />
        </g>
        <path
            class="cls-5"
            d="M500.91,239.93c0,20.81-22.81,37.77-28.9,56.55-6.32,19.46,1.95,46.54-9.84,62.75-11.91,16.36-40.3,16.81-56.66,28.72-16.2,11.79-25.34,38.72-44.8,45.04-18.78,6.1-41.91-10.12-62.72-10.12s-43.94,16.22-62.72,10.12-28.6-33.25-44.8-45.04c-16.36-11.91-44.75-12.36-56.66-28.72s-3.52-43.28-9.84-62.74c-6.1-18.78-28.9-35.73-28.9-56.55s22.81-37.77,28.9-56.55c6.32-19.46-1.95-46.54,9.84-62.75,11.91-16.36,40.3-16.81,56.66-28.72s25.34-38.72,44.8-45.04,41.91,10.12,62.72,10.12,43.94-16.22,62.72-10.12c19.46,6.32,28.6,33.25,44.8,45.04s44.75,12.36,56.66,28.72c11.79,16.2,3.52,43.28,9.84,62.74s28.9,35.73,28.9,56.55Z"
        />
        <circle class="cls-1" cx="297.98" cy="239.93" r="163.69" />
        <g>
            <g>
                <path
                    class="cls-2"
                    d="M297.1,313.65c-1.98,0-3.59-1.61-3.59-3.59v-4.11c0-1.98,1.61-3.59,3.59-3.59s3.59,1.61,3.59,3.59v4.11c0,1.98-1.61,3.59-3.59,3.59ZM297.1,292.42c-1.98,0-3.59-1.61-3.59-3.59v-4.11c0-1.98,1.61-3.59,3.59-3.59s3.59,1.61,3.59,3.59v4.11c0,1.98-1.61,3.59-3.59,3.59ZM297.1,271.2c-1.98,0-3.59-1.61-3.59-3.59v-4.11c0-1.98,1.61-3.59,3.59-3.59s3.59,1.61,3.59,3.59v4.11c0,1.98-1.61,3.59-3.59,3.59Z"
                />
                <path
                    class="cls-2"
                    d="M297.1,216.1c-1.98,0-3.59-1.61-3.59-3.59v-4.11c0-1.98,1.61-3.59,3.59-3.59s3.59,1.61,3.59,3.59v4.11c0,1.98-1.61,3.59-3.59,3.59ZM297.1,194.87c-1.98,0-3.59-1.61-3.59-3.59v-4.11c0-1.98,1.61-3.59,3.59-3.59s3.59,1.61,3.59,3.59v4.11c0,1.98-1.61,3.59-3.59,3.59ZM297.1,173.65c-1.98,0-3.59-1.61-3.59-3.59v-4.11c0-1.98,1.61-3.59,3.59-3.59s3.59,1.61,3.59,3.59v4.11c0,1.98-1.61,3.59-3.59,3.59Z"
                />
                <path
                    class="cls-10"
                    d="M363.51,166.67h-131.05c-14.25,0-25.85-11.59-25.85-25.85s11.59-25.85,25.85-25.85h131.05c14.25,0,25.85,11.59,25.85,25.85s-11.59,25.85-25.85,25.85ZM232.45,122.17c-10.29,0-18.66,8.37-18.66,18.66s8.37,18.66,18.66,18.66h131.05c10.29,0,18.66-8.37,18.66-18.66s-8.37-18.66-18.66-18.66h-131.05Z"
                />
                <path
                    class="cls-10"
                    d="M363.51,265.78h-131.05c-14.25,0-25.85-11.59-25.85-25.85s11.59-25.85,25.85-25.85h131.05c14.25,0,25.85,11.59,25.85,25.85s-11.59,25.85-25.85,25.85ZM232.45,221.28c-10.29,0-18.66,8.37-18.66,18.66s8.37,18.66,18.66,18.66h131.05c10.29,0,18.66-8.37,18.66-18.66s-8.37-18.66-18.66-18.66h-131.05Z"
                />
                <path
                    class="cls-10"
                    d="M363.51,364.88h-131.05c-14.25,0-25.85-11.59-25.85-25.85s11.59-25.85,25.85-25.85h131.05c14.25,0,25.85,11.59,25.85,25.85s-11.59,25.85-25.85,25.85ZM232.45,320.38c-10.29,0-18.66,8.37-18.66,18.66s8.37,18.66,18.66,18.66h131.05c10.29,0,18.66-8.37,18.66-18.66s-8.37-18.66-18.66-18.66h-131.05Z"
                />
            </g>
            <circle class="cls-4" cx="232.71" cy="140.83" r="13.66" />
            <circle class="cls-2" cx="232.71" cy="240.32" r="13.66" />
            <circle class="cls-8" cx="232.71" cy="339.04" r="13.66" />
        </g>
    </g>
</svg>
