<?xml version="1.0" encoding="utf-8"?>
<svg
    viewBox="0 0 600 600"
    style="enable-background: new 0 0 600 600"
    xmlns="http://www.w3.org/2000/svg"
>
    <defs>
        <style type="text/css">
            .st0 {
                opacity: 0.2;
                filter: url(#AI_Shadow_3);
            }
            .st1 {
                fill: #ffffff;
            }
            .st2 {
                fill: none;
            }
            .st3 {
                clip-path: url(#SVGID_2_);
            }
            .st4 {
                fill: #f8f9fa;
            }
            .st5 {
                fill: #202124;
            }
            .st6 {
                fill: #3ddc84;
            }
            .st7 {
                fill: #aecbfa;
            }
            .st8 {
                fill: none;
                stroke: #202124;
                stroke-width: 3;
                stroke-linecap: round;
            }
            .st9 {
                fill: #1f1f1f;
                stroke: #202124;
                stroke-miterlimit: 10;
            }
            .st10 {
                fill: #fbbc04;
            }
            .st11 {
                fill: #1f1f1f;
            }
            .st12 {
                fill: #5bb974;
            }
            .st13 {
                fill-rule: evenodd;
                clip-rule: evenodd;
                fill: #185abc;
            }
        </style>
    </defs>
    <filter
        filterUnits="objectBoundingBox"
        height="130%"
        id="AI_Shadow_3"
        width="140%"
        x="-15%"
        y="-15%"
    >
        <feGaussianBlur in="SourceAlpha" result="blur" stdDeviation="10" />
        <feOffset dx="0" dy="5" in="blur" result="offsetBlurredAlpha" />
        <feMerge>
            <feMergeNode in="offsetBlurredAlpha" />
            <feMergeNode in="SourceGraphic" />
        </feMerge>
    </filter>
    <g id="svg_shadow" class="st0" transform="matrix(1, 0, 0, 1, 2.1316282072803006e-14, 0)">
        <circle class="st1" cx="300" cy="300" r="241.5" />
    </g>
    <g id="base" transform="matrix(1, 0, 0, 1, 2.1316282072803006e-14, 0)">
        <circle class="st2" cx="300.5" cy="300" r="241.5" />
    </g>
    <g id="Layer_2" transform="matrix(1, 0, 0, 1, 2.1316282072803006e-14, 0)">
        <defs>
            <path
                id="SVGID_1_"
                d="M526,300c0,124.82-101.18,226-226,226S74,424.82,74,300S175.18,74,300,74S526,175.18,526,300z"
            />
        </defs>
        <clipPath id="SVGID_2_">
            <path
                d="M526,300c0,124.82-101.18,226-226,226S74,424.82,74,300S175.18,74,300,74S526,175.18,526,300z"
                style="overflow: visible"
            />
        </clipPath>
        <g id="Image_2_" class="st3">
            <g>
                <circle class="st4" cx="300" cy="300" r="226" />
            </g>
            <g id="Bottom_2_">
                <path
                    class="st5"
                    d="M514.2,372.24C482.6,326.59,399.44,294,301.81,294c-100.18,0-185.12,34.32-214.75,81.85 C118.23,463.35,201.79,526,300,526C399.55,526,484.07,461.63,514.2,372.24z"
                />
            </g>
            <g id="Tablet_2_">
                <path
                    class="st7"
                    d="M232,364.73V216.76c0-10.22-8.28-18.5-18.5-18.5h-92.49c-10.22,0-18.5,8.28-18.5,18.5v147.98 c0,10.22,8.28,18.5,18.5,18.5h92.49C223.72,383.23,232,374.95,232,364.73z"
                />
                <path
                    class="st5"
                    d="M185.76,218.25h-37c-0.83,0-1.5-0.67-1.5-1.5s0.67-1.5,1.5-1.5h37c0.83,0,1.5,0.67,1.5,1.5 S186.58,218.25,185.76,218.25z"
                />
            </g>
            <g id="Phone_2_">
                <path
                    class="st7"
                    d="M122.95,271.31H82.8c-6.65,0-12.05,5.39-12.05,12.05v88.34c0,6.65,5.39,12.05,12.05,12.05h40.16 c6.65,0,12.05-5.39,12.05-12.05v-88.34C135,276.71,129.61,271.31,122.95,271.31z"
                />
                <path
                    class="st5"
                    d="M102.88,291.39c2.22,0,4.02-1.8,4.02-4.02s-1.8-4.02-4.02-4.02s-4.02,1.8-4.02,4.02 S100.66,291.39,102.88,291.39z"
                />
                <path
                    class="st5"
                    d="M135,328.13c-0.33,0-0.6-0.27-0.6-0.6v-44.17c0-6.31-5.13-11.45-11.45-11.45h-20.08 c-0.33,0-0.6-0.27-0.6-0.6s0.27-0.6,0.6-0.6h20.08c6.97,0,12.65,5.67,12.65,12.65v44.17C135.6,327.86,135.33,328.13,135,328.13z"
                />
            </g>
            <g id="Web_2_">
                <g>
                    <path
                        class="st7"
                        d="M572.77,387.75V254.97c0-10.48-8.49-18.97-18.97-18.97H364.12c-10.48,0-18.97,8.49-18.97,18.97v132.78 H572.77z"
                    />
                    <path
                        class="st5"
                        d="M473.48,259.71c2.62,0,4.74-2.12,4.74-4.74c0-2.62-2.12-4.74-4.74-4.74s-4.74,2.12-4.74,4.74 C468.74,257.59,470.86,259.71,473.48,259.71z"
                    />
                    <path
                        class="st5"
                        d="M492.45,259.71c2.62,0,4.74-2.12,4.74-4.74c0-2.62-2.12-4.74-4.74-4.74c-2.62,0-4.74,2.12-4.74,4.74 C487.71,257.59,489.83,259.71,492.45,259.71z"
                    />
                    <path
                        class="st5"
                        d="M511.42,259.71c2.62,0,4.74-2.12,4.74-4.74c0-2.62-2.12-4.74-4.74-4.74c-2.62,0-4.74,2.12-4.74,4.74 C506.68,257.59,508.8,259.71,511.42,259.71z"
                    />
                </g>
                <path class="st8" d="M450.71,302.42l32.05,32.05" />
                <path
                    class="st9"
                    d="M480.33,310.05l-28.93-9.64c-1.67-0.56-3.27,1.03-2.69,2.69l9.64,28.93c0.51,1.52,2.41,1.97,3.55,0.83 l19.3-19.3c1.13-1.13,0.66-3.03-0.83-3.55L480.33,310.05z"
                />
                <path
                    class="st5"
                    d="M506.27,315.84h-12.82c-0.33,0-0.6-0.27-0.6-0.6s0.27-0.6,0.6-0.6h12.82c0.33,0,0.6,0.27,0.6,0.6 S506.6,315.84,506.27,315.84z"
                />
                <path
                    class="st5"
                    d="M489.18,303.02c-0.15,0-0.31-0.06-0.42-0.18c-0.23-0.23-0.23-0.61,0-0.85l17.09-17.09 c0.23-0.23,0.61-0.23,0.85,0c0.23,0.23,0.23,0.61,0,0.85l-17.09,17.09C489.48,302.96,489.33,303.02,489.18,303.02z"
                />
                <path
                    class="st5"
                    d="M476.36,298.74c-0.33,0-0.6-0.27-0.6-0.6v-12.82c0-0.33,0.27-0.6,0.6-0.6s0.6,0.27,0.6,0.6v12.82 C476.96,298.47,476.69,298.74,476.36,298.74z"
                />
            </g>
            <g id="Fingerprint_2_">
                <path
                    class="st10"
                    d="M478,196c0-31.47-25.51-57-57-57c-31.47,0-57,25.53-57,57v42.75c0,7.86,6.39,14.25,14.25,14.25H421 C452.49,253,478,227.49,478,196z"
                />
                <path
                    class="st11"
                    d="M440.78,226.19c-5.48,0-10.31-1.86-14.37-5.52c-4.07-3.68-6.13-8.42-6.13-14.08c0-0.33,0.27-0.6,0.6-0.6 s0.6,0.27,0.6,0.6c0,5.38,1.88,9.69,5.74,13.19c3.83,3.46,8.39,5.21,13.56,5.21c0.67,0,1.41-0.04,2.27-0.12 c0.81-0.1,1.48-0.21,2.09-0.36c0.32-0.08,0.65,0.12,0.73,0.44c0.08,0.32-0.12,0.65-0.44,0.73c-0.66,0.17-1.38,0.29-2.26,0.39 C442.27,226.15,441.49,226.19,440.78,226.19z"
                />
                <path
                    class="st11"
                    d="M397.75,164.77c-0.21,0-0.42-0.11-0.53-0.32c-0.16-0.29-0.05-0.66,0.25-0.81c3.6-1.93,7.45-3.45,11.46-4.52 c8-2.09,16.5-2.03,24.31-0.12c3.93,0.95,7.76,2.47,11.41,4.52c0.29,0.16,0.39,0.53,0.23,0.82c-0.16,0.29-0.53,0.39-0.82,0.23 c-3.55-2-7.29-3.48-11.11-4.4c-7.62-1.86-15.91-1.92-23.72,0.12c-3.91,1.04-7.68,2.53-11.2,4.41 C397.94,164.75,397.84,164.77,397.75,164.77z"
                />
                <path
                    class="st11"
                    d="M387.2,185.56c-0.12,0-0.25-0.04-0.36-0.12c-0.27-0.2-0.32-0.57-0.12-0.84c4.04-5.44,9.11-9.71,15.06-12.69 c5.99-3,12.42-4.53,19.13-4.53c6.78,0,13.3,1.47,19.38,4.38c6.11,2.95,11.22,7.23,15.19,12.73c0.19,0.27,0.13,0.64-0.13,0.84 c-0.27,0.19-0.65,0.13-0.84-0.14c-3.85-5.34-8.81-9.49-14.74-12.35c-5.91-2.83-12.26-4.26-18.86-4.26 c-6.52,0-12.77,1.48-18.59,4.4c-5.78,2.9-10.7,7.05-14.63,12.34C387.57,185.47,387.39,185.56,387.2,185.56z"
                />
                <path
                    class="st11"
                    d="M432.64,234.39c-0.05,0-0.11-0.01-0.16-0.02c-6.36-1.75-11.73-5.08-15.97-9.9 c-4.23-4.84-6.37-10.85-6.37-17.88c0-2.98,1.1-5.49,3.26-7.45c2.14-1.96,4.73-2.96,7.72-2.96c2.89,0,5.44,1,7.58,2.96 c2.13,1.98,3.21,4.49,3.21,7.45c0,2.6,0.94,4.72,2.87,6.47c1.94,1.78,4.17,2.65,6.82,2.65c2.66,0,4.95-0.9,6.83-2.66 c1.89-1.8,2.8-3.91,2.8-6.45c0-8.06-3-14.93-8.93-20.41c-5.95-5.49-13.15-8.27-21.39-8.27c-8.23,0-15.39,2.78-21.3,8.27 c-5.89,5.48-8.88,12.34-8.88,20.41c0,2,0.22,4.18,0.68,6.68c0.48,2.48,1.22,5.21,2.21,8.11c0.11,0.31-0.06,0.65-0.38,0.76 c-0.31,0.11-0.65-0.06-0.76-0.37c-1.01-2.95-1.76-5.74-2.25-8.27c-0.47-2.58-0.7-4.83-0.7-6.91c0-8.41,3.12-15.58,9.26-21.29 c6.13-5.7,13.58-8.59,22.12-8.59c8.56,0,16.03,2.89,22.21,8.59c6.18,5.72,9.31,12.88,9.31,21.29c0,2.85-1.07,5.31-3.18,7.32 c-2.11,1.99-4.69,2.99-7.66,2.99c-2.96,0-5.46-0.97-7.63-2.96c-2.16-1.96-3.26-4.44-3.26-7.35c0-2.61-0.95-4.82-2.83-6.57 c-1.94-1.78-4.15-2.64-6.76-2.64c-2.67,0-5,0.89-6.91,2.64c-1.91,1.73-2.87,3.94-2.87,6.56c0,6.73,2.04,12.48,6.08,17.08 c4.08,4.63,9.25,7.84,15.38,9.53c0.32,0.09,0.51,0.42,0.42,0.74C433.14,234.21,432.9,234.39,432.64,234.39z"
                />
                <path
                    class="st11"
                    d="M412.14,233.6c-0.16,0-0.32-0.06-0.44-0.19c-3.7-3.96-6.59-8.04-8.6-12.14c-2.04-4.11-3.08-9.05-3.08-14.68 c0-5.68,2.09-10.52,6.22-14.38c4.13-3.86,9.12-5.81,14.85-5.81c5.75,0,10.75,1.96,14.85,5.82c4.13,3.86,6.22,8.7,6.22,14.38 c0,0.33-0.27,0.6-0.6,0.6s-0.6-0.27-0.6-0.6c0-5.34-1.97-9.88-5.84-13.5c-3.87-3.64-8.59-5.49-14.03-5.49 c-5.41,0-10.13,1.85-14.03,5.49c-3.88,3.62-5.84,8.17-5.84,13.5c0,5.44,0.99,10.21,2.95,14.15c1.96,3.99,4.79,7.98,8.4,11.85 c0.23,0.24,0.21,0.62-0.03,0.85C412.44,233.55,412.29,233.6,412.14,233.6z"
                />
            </g>
            <g id="Passkey_2_">
                <path
                    class="st5"
                    d="M345.84,239.48c-3.59,0-6.5-2.91-6.5-6.5v-32.95c0-23.67-19.25-42.92-42.92-42.92s-42.92,19.25-42.92,42.92 v32.95c0,3.59-2.91,6.5-6.5,6.5s-6.5-2.91-6.5-6.5v-32.95c0-30.83,25.08-55.92,55.92-55.92s55.92,25.08,55.92,55.92v32.95 C352.34,236.57,349.43,239.48,345.84,239.48z"
                />
                <g>
                    <path
                        class="st1"
                        d="M370.8,230.47H221.45c-16.98,0-30.75,13.77-30.75,30.75V393c0,16.98,13.77,30.75,30.75,30.75H370.8 c16.98,0,30.75-13.77,30.75-30.75V261.22C401.55,244.24,387.78,230.47,370.8,230.47z"
                    />
                    <path
                        class="st11"
                        d="M370.8,424.35H221.45c-17.29,0-31.35-14.06-31.35-31.35V261.22c0-17.29,14.06-31.35,31.35-31.35H370.8 c17.29,0,31.35,14.06,31.35,31.35V393C402.15,410.29,388.09,424.35,370.8,424.35z M221.45,231.07 c-16.62,0-30.15,13.52-30.15,30.15V393c0,16.62,13.52,30.15,30.15,30.15H370.8c16.62,0,30.15-13.53,30.15-30.15V261.22 c0-16.62-13.53-30.15-30.15-30.15H221.45z"
                    />
                </g>
                <path
                    d="M 252.094 359.665 L 252.094 345.992 C 252.094 343.225 252.804 340.681 254.228 338.362 C 255.65 336.042 257.54 334.272 259.896 333.051 C 264.934 330.529 270.055 328.635 275.256 327.375 C 280.458 326.113 285.74 325.482 291.103 325.482 C 292.729 325.482 294.354 325.543 295.981 325.665 C 297.606 325.787 299.231 325.971 300.856 326.215 C 300.532 330.935 301.385 335.391 303.416 339.583 C 305.448 343.775 308.415 347.214 312.316 349.898 L 312.316 359.665 L 252.094 359.665 Z M 330.114 374.315 L 322.8 366.99 L 322.8 344.283 C 319.224 343.225 316.298 341.211 314.022 338.24 C 311.747 335.269 310.609 331.83 310.609 327.925 C 310.609 323.203 312.275 319.174 315.608 315.838 C 318.939 312.5 322.961 310.833 327.675 310.833 C 332.39 310.833 336.411 312.5 339.744 315.838 C 343.076 319.174 344.743 323.203 344.743 327.925 C 344.743 331.587 343.706 334.842 341.635 337.69 C 339.562 340.54 336.941 342.574 333.771 343.794 L 339.867 349.898 L 332.552 357.224 L 339.867 364.549 L 330.114 374.315 Z M 291.103 320.599 C 285.74 320.599 281.148 318.687 277.329 314.861 C 273.508 311.036 271.599 306.437 271.599 301.066 C 271.599 295.694 273.508 291.096 277.329 287.271 C 281.148 283.445 285.74 281.532 291.103 281.532 C 296.468 281.532 301.059 283.445 304.88 287.271 C 308.699 291.096 310.609 295.694 310.609 301.066 C 310.609 306.437 308.699 311.036 304.88 314.861 C 301.059 318.687 296.468 320.599 291.103 320.599 Z M 327.675 330.366 C 329.058 330.366 330.215 329.898 331.15 328.962 C 332.085 328.026 332.552 326.866 332.552 325.482 C 332.552 324.099 332.085 322.938 331.15 322.002 C 330.215 321.067 329.058 320.599 327.675 320.599 C 326.294 320.599 325.136 321.067 324.201 322.002 C 323.268 322.938 322.8 324.099 322.8 325.482 C 322.8 326.866 323.268 328.026 324.201 328.962 C 325.136 329.898 326.294 330.366 327.675 330.366 Z"
                    style="transform-box: fill-box; transform-origin: 50% 50%"
                />
            </g>
            <g id="Faceunlock_2_">
                <path
                    class="st12"
                    d="M169.92,403.04c30.97,0,56.08-25.11,56.08-56.08s-25.11-56.08-56.08-56.08s-56.08,25.11-56.08,56.08 S138.95,403.04,169.92,403.04z"
                />
                <path
                    class="st11"
                    d="M169.92,382.61c-19.66,0-35.65-15.99-35.65-35.65s15.99-35.65,35.65-35.65c19.66,0,35.65,15.99,35.65,35.65 S189.58,382.61,169.92,382.61z M169.92,312.51c-19,0-34.45,15.45-34.45,34.45c0,19,15.45,34.45,34.45,34.45 c19,0,34.45-15.45,34.45-34.45C204.37,327.96,188.92,312.51,169.92,312.51z"
                />
                <path
                    class="st11"
                    d="M159.33,339.95c0,1.44-1.18,2.62-2.62,2.62c-1.44,0-2.62-1.18-2.62-2.62c0-1.44,1.18-2.62,2.62-2.62 C158.15,337.33,159.33,338.51,159.33,339.95z"
                />
                <path
                    class="st11"
                    d="M187.37,339.95c0,1.44-1.18,2.62-2.62,2.62c-1.44,0-2.62-1.18-2.62-2.62c0-1.44,1.18-2.62,2.62-2.62 C186.19,337.33,187.37,338.51,187.37,339.95z"
                />
                <polygon
                    class="st11"
                    points="172.99,352.71 167.94,352.71 167.94,351.71 171.99,351.71 171.99,345.2 172.99,345.2 &#9;&#9;&#9;"
                />
                <path
                    class="st11"
                    d="M170.73,365.55c-1.66,0-3.32-0.63-4.58-1.89c-1.25-1.25-1.93-2.98-1.89-4.75l1,0.03 c-0.04,1.5,0.54,2.97,1.6,4.02c2.14,2.13,5.61,2.13,7.75,0l0.71,0.71C174.04,364.92,172.38,365.55,170.73,365.55z"
                />
            </g>
            <g id="Deviceunlock_2_">
                <path
                    class="st13"
                    d="M416.34,339.78c-1.84,1.16-4.2,1.16-6.02,0c-12.52-7.95-29.3-6.46-40.24,4.46 c-10.92,10.92-12.39,27.7-4.46,40.22c1.16,1.82,1.16,4.2,0,6.04c-7.95,12.52-6.46,29.3,4.46,40.22 c10.94,10.92,27.72,12.41,40.24,4.46c1.82-1.16,4.2-1.16,6.02,0c12.52,7.95,29.3,6.46,40.22-4.46 c10.94-10.92,12.41-27.7,4.46-40.22c-1.16-1.82-1.16-4.2,0-6.04c7.95-12.52,6.46-29.3-4.46-40.22 C445.64,333.33,428.86,331.83,416.34,339.78z"
                />
                <path
                    class="st1"
                    d="M386.98,365.5c2.43,0,4.39-1.97,4.39-4.39s-1.97-4.39-4.39-4.39c-2.43,0-4.39,1.97-4.39,4.39 S384.55,365.5,386.98,365.5z"
                />
                <path
                    class="st1"
                    d="M413.34,365.5c2.43,0,4.39-1.97,4.39-4.39s-1.97-4.39-4.39-4.39c-2.43,0-4.39,1.97-4.39,4.39 S410.91,365.5,413.34,365.5z"
                />
                <path
                    class="st1"
                    d="M439.69,365.5c2.43,0,4.39-1.97,4.39-4.39s-1.97-4.39-4.39-4.39c-2.43,0-4.39,1.97-4.39,4.39 S437.27,365.5,439.69,365.5z"
                />
                <path
                    class="st1"
                    d="M386.98,391.86c2.43,0,4.39-1.97,4.39-4.39s-1.97-4.39-4.39-4.39c-2.43,0-4.39,1.97-4.39,4.39 S384.55,391.86,386.98,391.86z"
                />
                <path
                    class="st1"
                    d="M413.34,391.86c2.43,0,4.39-1.97,4.39-4.39s-1.97-4.39-4.39-4.39c-2.43,0-4.39,1.97-4.39,4.39 S410.91,391.86,413.34,391.86z"
                />
                <path
                    class="st1"
                    d="M439.69,391.86c2.43,0,4.39-1.97,4.39-4.39s-1.97-4.39-4.39-4.39c-2.43,0-4.39,1.97-4.39,4.39 S437.27,391.86,439.69,391.86z"
                />
                <path
                    class="st1"
                    d="M386.98,418.22c2.43,0,4.39-1.97,4.39-4.39s-1.97-4.39-4.39-4.39c-2.43,0-4.39,1.97-4.39,4.39 S384.55,418.22,386.98,418.22z"
                />
                <path
                    class="st1"
                    d="M413.34,418.22c2.43,0,4.39-1.97,4.39-4.39s-1.97-4.39-4.39-4.39c-2.43,0-4.39,1.97-4.39,4.39 S410.91,418.22,413.34,418.22z"
                />
                <path
                    class="st1"
                    d="M439.69,418.22c2.43,0,4.39-1.97,4.39-4.39s-1.97-4.39-4.39-4.39c-2.43,0-4.39,1.97-4.39,4.39 S437.27,418.22,439.69,418.22z"
                />
                <path
                    class="st1"
                    d="M439.69,414.42h-54.16l53.74-53.74c0.23-0.23,0.61-0.23,0.85,0c0.23,0.23,0.23,0.61,0,0.85l-51.69,51.69 h51.26c0.33,0,0.6,0.27,0.6,0.6S440.02,414.42,439.69,414.42z"
                />
            </g>
        </g>
    </g>
</svg>
