<svg
    id="Layer_1"
    data-name="Layer 1"
    xmlns="http://www.w3.org/2000/svg"
    xmlns:xlink="http://www.w3.org/1999/xlink"
    viewBox="0 0 600 600"
>
    <defs>
        <style>
            .cls-1,
            .cls-2,
            .cls-4 {
                fill: none;
            }
            .cls-2 {
                clip-rule: evenodd;
            }
            .cls-3 {
                clip-path: url(#clip-path);
            }
            .cls-4 {
                stroke: #d9dbdf;
                stroke-miterlimit: 10;
                stroke-width: 0.991px;
            }
            .cls-15,
            .cls-5 {
                opacity: 0.2;
            }
            .cls-5 {
                filter: url(#AI_Shadow_3);
            }
            .cls-6 {
                fill: #ccc;
            }
            .cls-7 {
                fill: #8bb4f5;
            }
            .cls-8 {
                fill: #fff;
            }
            .cls-9 {
                clip-path: url(#clip-path-2);
            }
            .cls-10,
            .cls-13 {
                fill: #4687f0;
            }
            .cls-11 {
                opacity: 0.3;
            }
            .cls-12,
            .cls-16 {
                fill: #4688f1;
            }
            .cls-12 {
                fill-opacity: 0.2;
            }
            .cls-12,
            .cls-13 {
                fill-rule: evenodd;
            }
            .cls-14 {
                fill: #d2e2fa;
            }
            .cls-17 {
                clip-path: url(#clip-path-3);
            }
        </style>
        <clipPath id="clip-path">
            <circle class="cls-1" cx="-319.418" cy="-319.888" r="226.524" />
        </clipPath>
        <filter id="AI_Shadow_3" x="-15%" y="-15%" width="140%" height="130%" name="AI_Shadow_3">
            <feGaussianBlur result="blur" stdDeviation="10" in="SourceAlpha" />
            <feOffset result="offsetBlurredAlpha" dy="5" in="blur" />
            <feMerge>
                <feMergeNode in="offsetBlurredAlpha" />
                <feMergeNode in="SourceGraphic" />
            </feMerge>
        </filter>
        <clipPath id="clip-path-2">
            <path
                class="cls-1"
                d="M299.535,73.645a225.963,225.963,0,1,1-88.083,17.8,224.741,224.741,0,0,1,88.083-17.8"
            />
        </clipPath>
        <clipPath id="clip-path-3">
            <polygon
                class="cls-2"
                points="497.089 635.285 269.89 502.313 441.277 403.363 668.477 536.335 497.089 635.285"
            />
        </clipPath>
    </defs>
    <g class="cls-3">
        <line class="cls-4" x1="37.595" y1="85.136" x2="-676.127" y2="85.136" />
        <line class="cls-4" x1="37.595" y1="39.111" x2="-676.127" y2="39.111" />
    </g>
    <g id="svg_shadow" data-name="svg shadow" class="cls-5">
        <circle class="cls-6" cx="300" cy="300" r="241.5" />
    </g>
    <g id="base">
        <circle class="cls-7" cx="299.68" cy="300" r="241.5" />
        <path
            class="cls-8"
            d="M299.68,73.5a225.746,225.746,0,1,1-88.159,17.793A225.06,225.06,0,0,1,299.68,73.5m0-15C166.3,58.5,58.18,166.623,58.18,300S166.3,541.5,299.68,541.5,541.18,433.377,541.18,300,433.057,58.5,299.68,58.5Z"
        />
    </g>
    <g class="cls-9">
        <path
            class="cls-8"
            d="M345.219,714.553a7.121,7.121,0,0,1-3.8-.9L-63.6,479.8a1.986,1.986,0,0,1-1.2-1.6,3.227,3.227,0,0,1,1.9-2.4L342.42,241.847a10.713,10.713,0,0,1,5.1-1.3,7.124,7.124,0,0,1,3.8.9L756.337,475.3a1.985,1.985,0,0,1,1.2,1.6,3.229,3.229,0,0,1-1.9,2.4L350.318,713.253A10.717,10.717,0,0,1,345.219,714.553Z"
        />
        <path
            class="cls-10"
            d="M347.519,241.547h0a7.693,7.693,0,0,1,3.3.7L755.837,476.1c.4.3.7.6.7.8s-.3.9-1.4,1.5L349.818,712.353a9.765,9.765,0,0,1-4.6,1.1,7.686,7.686,0,0,1-3.3-.7L-63.1,478.9c-.4-.3-.7-.6-.7-.8s.3-.9,1.4-1.5L342.919,242.647a9.48,9.48,0,0,1,4.6-1.1m0-2a11.629,11.629,0,0,0-5.6,1.4L-63.4,474.9c-2.9,1.7-3.3,4.3-.7,5.7L340.92,714.453a8.539,8.539,0,0,0,4.3,1,11.621,11.621,0,0,0,5.6-1.4L756.137,480.1c2.9-1.7,3.3-4.3.7-5.7L351.818,240.548a8.542,8.542,0,0,0-4.3-1Z"
        />
        <g class="cls-11">
            <line class="cls-8" x1="293.709" y1="269.533" x2="708.946" y2="508.494" />
            <rect
                class="cls-10"
                x="500.328"
                y="149.47"
                width="2"
                height="479.087"
                transform="translate(-85.895 629.494) rotate(-60.08)"
            />
            <path
                class="cls-10"
                d="M349.218,266.442a13.82,13.82,0,0,1,6.7,1.6c1.4.8,2.2,1.8,2.2,2.7s-.8,1.9-2.2,2.7a14.822,14.822,0,0,1-13.4,0c-1.4-.8-2.2-1.8-2.2-2.7s.8-1.9,2.2-2.7a13.815,13.815,0,0,1,6.7-1.6m0-2a15.926,15.926,0,0,0-7.7,1.8c-4.3,2.5-4.3,6.4,0,8.9a17.372,17.372,0,0,0,15.4,0c4.3-2.5,4.3-6.4,0-8.9a15.93,15.93,0,0,0-7.7-1.8Z"
            />
            <path
                class="cls-10"
                d="M374.913,281.239a13.82,13.82,0,0,1,6.7,1.6c1.4.8,2.2,1.8,2.2,2.7s-.8,1.9-2.2,2.7a14.824,14.824,0,0,1-13.4,0c-1.4-.8-2.2-1.8-2.2-2.7s.8-1.9,2.2-2.7a13.822,13.822,0,0,1,6.7-1.6m0-2a15.926,15.926,0,0,0-7.7,1.8c-4.3,2.5-4.3,6.4,0,8.9a17.372,17.372,0,0,0,15.4,0c4.3-2.5,4.3-6.4,0-8.9a17.151,17.151,0,0,0-7.7-1.8Z"
            />
            <path
                class="cls-10"
                d="M400.608,296.136a13.822,13.822,0,0,1,6.7,1.6c1.4.8,2.2,1.8,2.2,2.7s-.8,1.9-2.2,2.7a14.824,14.824,0,0,1-13.4,0c-1.4-.8-2.2-1.8-2.2-2.7s.8-1.9,2.2-2.7a13.539,13.539,0,0,1,6.7-1.6m0-2a15.919,15.919,0,0,0-7.7,1.8c-4.3,2.5-4.3,6.4,0,8.9a17.372,17.372,0,0,0,15.4,0c4.3-2.5,4.3-6.4,0-8.9a16.194,16.194,0,0,0-7.7-1.8Z"
            />
        </g>
        <polygon
            class="cls-12"
            points="208.605 478.513 59.557 391.28 171.991 326.366 321.039 413.599 208.605 478.513"
        />
        <polygon
            class="cls-13"
            points="210.345 461.612 61.297 374.378 173.731 309.465 322.779 396.698 210.345 461.612"
        />
        <polygon
            class="cls-13"
            points="382.726 389.654 300.039 342.262 271.488 339.895 331.414 304.709 430.589 361.552 382.726 389.654"
        />
        <polygon
            class="cls-12"
            points="482.46 644.01 255.261 511.038 426.648 412.088 653.847 545.06 482.46 644.01"
        />
        <polygon
            class="cls-10"
            points="367.726 466.124 338.835 451.145 350.177 443.993 374.049 460.374 367.726 466.124"
        />
        <path
            class="cls-14"
            d="M195.939,365.708c-6.778,0-13.556,1.453-18.639,4.357-10.409,6.052-10.409,15.492,0,21.544,5.083,2.9,11.861,4.357,18.639,4.357s13.555-1.453,18.638-4.357c10.409-6.052,10.409-15.492,0-21.544a39.226,39.226,0,0,0-18.638-4.357Z"
        />
        <path
            class="cls-14"
            d="M133.932,392.33a5.3,5.3,0,0,0-2.558.6c-1.429.831-1.429,2.127,0,2.958a5.772,5.772,0,0,0,5.117,0c1.429-.831,1.429-2.127,0-2.958a5.392,5.392,0,0,0-2.559-.6Z"
        />
        <path
            class="cls-10"
            d="M209.312,385.689l-5.939-14.135a1.489,1.489,0,0,0-2.134-.7l-18.064,10.76a1.488,1.488,0,0,0,.554,2.753l24,3.375A1.489,1.489,0,0,0,209.312,385.689Z"
        />
        <rect
            class="cls-14"
            x="155.901"
            y="343.598"
            width="1"
            height="127.969"
            transform="translate(-274.872 339.844) rotate(-60.08)"
        />
        <rect
            class="cls-14"
            x="116.627"
            y="366.053"
            width="2"
            height="38.339"
            transform="translate(-274.926 295.03) rotate(-60.08)"
        />
        <polygon
            class="cls-12"
            points="381.193 399.613 298.505 352.22 269.954 349.853 329.881 314.668 429.056 371.511 381.193 399.613"
        />
        <g class="cls-15">
            <path
                class="cls-16"
                d="M291.909,293.159a29.6,29.6,0,0,0-14.313,3.346c-7.992,4.647-7.992,11.9,0,16.543a32.284,32.284,0,0,0,28.625,0c7.993-4.647,7.993-11.9,0-16.543a30.109,30.109,0,0,0-14.312-3.346Z"
            />
        </g>
        <path
            class="cls-16"
            d="M293.127,284.326a29.592,29.592,0,0,0-14.313,3.346c-7.993,4.647-7.993,11.9,0,16.543a32.292,32.292,0,0,0,28.625,0c7.993-4.647,7.993-11.9,0-16.543a30.109,30.109,0,0,0-14.312-3.346Z"
        />
        <path
            class="cls-14"
            d="M297.556,289.914a6.349,6.349,0,0,0-3.075.719c-1.718,1-1.718,2.556,0,3.554a6.935,6.935,0,0,0,6.15,0c1.718-1,1.718-2.556,0-3.554a6.46,6.46,0,0,0-3.075-.719Z"
        />
        <path
            class="cls-14"
            d="M293.156,302.542c3.684-2.141,3.684-5.482,0-7.624a13.876,13.876,0,0,0-6.6-1.542h0a13.641,13.641,0,0,0-6.6,1.542m0,0,13.192,7.624Z"
        />
        <polygon
            class="cls-13"
            points="481.004 627.846 253.804 494.874 425.191 395.923 652.391 528.896 481.004 627.846"
        />
        <g class="cls-17">
            <rect
                class="cls-8"
                x="461.228"
                y="376.928"
                width="1"
                height="141.821"
                transform="translate(-156.728 624.656) rotate(-60.08)"
            />
            <rect
                class="cls-8"
                x="467.244"
                y="417.143"
                width="1"
                height="100.266"
                transform="translate(-170.56 639.613) rotate(-60.081)"
            />
            <rect
                class="cls-8"
                x="402.405"
                y="413.083"
                width="1"
                height="33.759"
                transform="translate(-170.719 564.706) rotate(-60.08)"
            />
            <rect
                class="cls-8"
                x="461.953"
                y="437.807"
                width="1"
                height="84.802"
                transform="translate(-184.421 641.505) rotate(-60.08)"
            />
            <rect
                class="cls-8"
                x="398.201"
                y="417.654"
                width="1"
                height="51.731"
                transform="translate(-184.576 567.861) rotate(-60.08)"
            />
            <rect
                class="cls-8"
                x="447.095"
                y="441.927"
                width="1"
                height="91.413"
                transform="translate(-198.304 632.349) rotate(-60.08)"
            />
            <rect
                class="cls-8"
                x="383.892"
                y="428.069"
                width="1"
                height="46.386"
                transform="translate(-198.458 559.337) rotate(-60.08)"
            />
            <rect
                class="cls-8"
                x="428.109"
                y="438.91"
                width="1"
                height="107.549"
                transform="translate(-212.197 618.427) rotate(-60.08)"
            />
            <rect
                class="cls-8"
                x="363.882"
                y="441.78"
                width="1"
                height="27.885"
                transform="translate(-212.353 544.234) rotate(-60.08)"
            />
            <rect
                class="cls-8"
                x="401.265"
                y="422.302"
                width="1"
                height="141.821"
                transform="translate(-226.109 595.424) rotate(-60.08)"
            />
            <rect
                class="cls-8"
                x="389.272"
                y="431.377"
                width="1"
                height="141.821"
                transform="translate(-239.986 589.578) rotate(-60.08)"
            />
            <rect
                class="cls-8"
                x="388.797"
                y="464.126"
                width="1"
                height="106.46"
                transform="translate(-253.284 596.723) rotate(-60.081)"
            />
            <rect
                class="cls-8"
                x="324.63"
                y="465.872"
                width="1"
                height="29.116"
                transform="translate(-253.441 522.595) rotate(-60.08)"
            />
            <rect
                class="cls-8"
                x="361.48"
                y="446.701"
                width="1"
                height="141.822"
                transform="translate(-267.198 573.174) rotate(-60.08)"
            />
            <rect
                class="cls-8"
                x="349.487"
                y="455.776"
                width="1"
                height="141.822"
                transform="translate(-281.074 567.328) rotate(-60.08)"
            />
        </g>
        <polygon
            class="cls-8"
            points="397.491 371.499 378.167 360.379 380.15 354.08 363.618 362.409 366.381 353.657 351.992 362.849 362.973 342.6 349.219 350.699 356.469 332.922 335.428 346.603 340.325 331.906 334.192 335.072 314.523 323.753 315.021 322.886 334.218 333.933 342.051 329.89 337.281 344.206 358.6 330.343 351.263 348.335 365.568 339.911 354.716 359.922 368.164 351.332 365.286 360.45 381.816 352.121 379.362 359.913 397.989 370.632 397.491 371.499"
        />
        <path
            class="cls-8"
            d="M2.235,196.225,210.653,75.767a15.812,15.812,0,0,1,15.928.061L320.859,131.3a9.528,9.528,0,0,1,4.734,8.4l0,1.638c-.087,3.15-1.69,5.14-4.8,6.94L115,267.209a25.378,25.378,0,0,1-25.567-.1L2.161,215.762c-6.025-3.208-5.311-8.609-5.311-8.609A10.961,10.961,0,0,1,2.235,196.225Z"
        />
        <path
            class="cls-10"
            d="M218.564,75.645h0a13.818,13.818,0,0,1,7,1.907l94.278,55.468a7.552,7.552,0,0,1,3.748,6.678l0,1.606c-.071,2.254-1.105,3.675-3.8,5.235L114,265.478a23.376,23.376,0,0,1-23.552-.09L3.175,214.038l-.037-.021L3.1,214c-4.655-2.478-4.283-6.437-4.268-6.582l.032-.247-.029-.248a8.968,8.968,0,0,1,4.4-8.964L211.654,77.5a13.829,13.829,0,0,1,6.91-1.853m0-2a15.8,15.8,0,0,0-7.91,2.122L2.235,196.225A10.963,10.963,0,0,0-3.15,207.153s-.714,5.4,5.311,8.609l87.276,51.349a25.382,25.382,0,0,0,25.567.1L320.8,148.27c3.113-1.8,4.716-3.79,4.8-6.94l0-1.638a9.528,9.528,0,0,0-4.734-8.4L226.581,75.828a15.8,15.8,0,0,0-8.018-2.183Z"
        />
        <path
            class="cls-14"
            d="M321.535,131.759c2.83,2.261-.74,4.791-.74,4.791L115,255.49a25.378,25.378,0,0,1-25.567-.1L-2.212,201.084a11.4,11.4,0,0,0-.938,6.069l-.163-1.006a11,11,0,0,0,5.474,9.615l87.276,51.349a25.378,25.378,0,0,0,25.566.1L320.8,148.27a9.531,9.531,0,0,0,4.8-8.061l0-.517A9.519,9.519,0,0,0,321.535,131.759Z"
        />
        <path
            class="cls-10"
            d="M323.173,137.078a7.783,7.783,0,0,1,.42,2.634l0,.477a7.572,7.572,0,0,1-3.8,6.35L114,265.478a23.376,23.376,0,0,1-23.552-.09L3.175,214.038a9,9,0,0,1-4.459-7.1l.12-.017a9.586,9.586,0,0,1,.088-2.838l89.5,53.032a27.375,27.375,0,0,0,27.581.107L321.8,138.281l.08-.046.076-.053a7.7,7.7,0,0,0,1.222-1.1m-1.638-5.319c2.83,2.261-.74,4.791-.74,4.791L115,255.49a25.382,25.382,0,0,1-25.567-.1L-2.212,201.084a11.4,11.4,0,0,0-.938,6.069l-.163-1.006a11,11,0,0,0,5.474,9.615l87.276,51.349a25.38,25.38,0,0,0,25.566.1L320.8,148.27a9.531,9.531,0,0,0,4.8-8.061l0-.517a9.519,9.519,0,0,0-4.058-7.933Z"
        />
        <polygon
            class="cls-8"
            points="200.728 82.027 16.632 189.203 124.617 252.094 307.857 146.298 200.728 82.027"
        />
        <path
            class="cls-10"
            d="M200.712,84.37l103.17,61.895-179.261,103.5L20.639,189.2,200.712,84.37m.016-2.343L16.632,189.2l107.984,62.891L307.857,146.3,200.728,82.027Z"
        />
        <polygon
            class="cls-10"
            points="124.044 250.558 15.9 188.065 17.75 186.996 125.741 249.401 124.044 250.558"
        />
        <g class="cls-15">
            <path
                class="cls-16"
                d="M189.22,103.161a29.6,29.6,0,0,0-14.312,3.345c-7.993,4.647-7.993,11.9,0,16.543a32.284,32.284,0,0,0,28.625,0c7.993-4.646,7.993-11.9,0-16.543a30.122,30.122,0,0,0-14.313-3.345Z"
            />
        </g>
        <path
            class="cls-16"
            d="M189.935,97.573a29.606,29.606,0,0,0-14.313,3.346c-7.992,4.647-7.992,11.9,0,16.543a32.286,32.286,0,0,0,28.626,0c7.992-4.647,7.992-11.9,0-16.543a30.125,30.125,0,0,0-14.313-3.346Z"
        />
        <path
            class="cls-14"
            d="M194.364,103.161a6.363,6.363,0,0,0-3.075.719c-1.717,1-1.717,2.556,0,3.555a6.937,6.937,0,0,0,6.151,0c1.717-1,1.717-2.556,0-3.555a6.476,6.476,0,0,0-3.076-.719Z"
        />
        <path
            class="cls-14"
            d="M189.965,115.79c3.683-2.142,3.683-5.483,0-7.624a13.881,13.881,0,0,0-6.6-1.542h0a13.636,13.636,0,0,0-6.6,1.542m0,0,13.192,7.624Z"
        />
        <polygon
            class="cls-13"
            points="281.712 195.572 202.372 150.097 174.977 147.826 232.477 114.065 327.637 168.607 281.712 195.572"
        />
        <polygon
            class="cls-12"
            points="280.24 205.127 200.9 159.653 173.505 157.382 231.006 123.621 326.166 178.163 280.24 205.127"
        />
        <polygon
            class="cls-8"
            points="295.869 178.169 277.313 167.49 279.206 161.477 263.344 169.469 265.993 161.078 252.167 169.91 262.706 150.476 249.519 158.241 256.475 141.188 236.29 154.311 240.992 140.202 235.142 143.222 216.259 132.355 216.757 131.488 235.167 142.083 242.719 138.186 238.143 151.914 258.605 138.609 251.563 155.877 265.301 147.788 254.891 166.984 267.776 158.753 265.012 167.51 280.872 159.518 278.508 167.025 296.367 177.302 295.869 178.169"
        />
        <polygon
            class="cls-12"
            points="130.985 180.193 104.036 164.298 133.425 147.33 160.374 163.225 130.985 180.193"
        />
        <polygon
            class="cls-13"
            points="131.609 172.208 104.661 156.313 134.05 139.345 160.999 155.24 131.609 172.208"
        />
        <polygon
            class="cls-12"
            points="168.598 205.441 141.65 189.546 171.039 172.578 197.988 188.473 168.598 205.441"
        />
        <polygon
            class="cls-13"
            points="169.223 197.456 142.274 181.56 171.664 164.592 198.612 180.488 169.223 197.456"
        />
        <polygon
            class="cls-12"
            points="122.582 231.56 95.634 215.665 125.023 198.697 151.972 214.592 122.582 231.56"
        />
        <polygon
            class="cls-13"
            points="123.207 223.575 96.259 207.68 125.648 190.712 152.596 206.607 123.207 223.575"
        />
        <polygon
            class="cls-12"
            points="82.359 206.972 55.411 191.076 84.8 174.108 111.749 190.004 82.359 206.972"
        />
        <polygon
            class="cls-13"
            points="82.984 198.986 56.035 183.091 85.425 166.123 112.373 182.018 82.984 198.986"
        />
    </g>
    <path
        class="cls-16"
        d="M331.4,158a1,1,0,0,1-.167-1.986q1.493-.253,3-.455a1,1,0,1,1,.264,1.982q-1.471.2-2.93.445A.964.964,0,0,1,331.4,158Z"
    />
    <path
        class="cls-16"
        d="M424.03,259.755a.976.976,0,0,1-.261-.035,1,1,0,0,1-.706-1.225c.515-1.907.964-3.858,1.334-5.8a1,1,0,0,1,1.965.375c-.38,1.99-.84,3.99-1.367,5.944A1,1,0,0,1,424.03,259.755Zm2.626-15.826-.066,0a1,1,0,0,1-.933-1.064c.118-1.787.178-3.6.178-5.4l0-.55a1,1,0,0,1,.995-1h.005a1,1,0,0,1,1,.994l0,.561c0,1.841-.062,3.7-.182,5.533A1,1,0,0,1,426.656,243.929Zm-.5-16.032a1,1,0,0,1-.991-.872c-.251-1.951-.58-3.925-.978-5.866a1,1,0,0,1,1.959-.4c.408,1.989.746,4.013,1,6.013a1,1,0,0,1-.864,1.119A.95.95,0,0,1,426.155,227.9Zm-3.612-15.624a1,1,0,0,1-.947-.679c-.632-1.868-1.343-3.737-2.113-5.553a1,1,0,0,1,1.842-.78c.788,1.862,1.517,3.777,2.165,5.691a1,1,0,0,1-.947,1.321Zm-6.611-14.6a1,1,0,0,1-.867-.5c-.991-1.713-2.055-3.407-3.164-5.035a1,1,0,1,1,1.653-1.126c1.136,1.669,2.227,3.405,3.242,5.16a1,1,0,0,1-.864,1.5Zm-9.347-13.028a1,1,0,0,1-.752-.34c-1.3-1.482-2.674-2.937-4.085-4.325a1,1,0,1,1,1.4-1.426c1.446,1.422,2.855,2.913,4.187,4.432a1,1,0,0,1-.752,1.659Zm-11.707-10.965a.993.993,0,0,1-.607-.207c-1.574-1.207-3.206-2.368-4.852-3.449a1,1,0,0,1,1.1-1.672c1.687,1.108,3.359,2.3,4.97,3.534a1,1,0,0,1-.609,1.794Zm-13.624-8.476a1,1,0,0,1-.442-.1c-1.771-.874-3.6-1.692-5.433-2.433a1,1,0,0,1,.748-1.855c1.88.76,3.754,1.6,5.57,2.494a1,1,0,0,1-.443,1.9Zm-15.025-5.638a1,1,0,0,1-.258-.034c-1.905-.506-3.856-.948-5.8-1.312a1,1,0,0,1,.369-1.966c1.993.374,3.994.826,5.945,1.346a1,1,0,0,1-.255,1.966ZM350.4,157c-.021,0-.042,0-.063,0-1.7-.106-3.422-.16-5.125-.16l-.821,0h-.011a1,1,0,0,1-.011-2l.843,0c1.745,0,3.511.055,5.25.164a1,1,0,0,1-.062,2Z"
    />
    <path
        class="cls-16"
        d="M419.614,272.075a1,1,0,0,1-.91-1.413q.609-1.347,1.171-2.72a1,1,0,0,1,1.852.757q-.576,1.407-1.2,2.787A1,1,0,0,1,419.614,272.075Z"
    />
    <path
        class="cls-16"
        d="M272.36,275.311a1,1,0,0,1-.892-.548q-.685-1.351-1.323-2.731a1,1,0,0,1,1.816-.839q.621,1.346,1.29,2.666a1,1,0,0,1-.891,1.452Z"
    />
    <path
        class="cls-16"
        d="M267.265,262.759a1,1,0,0,1-.955-.7c-.632-2.032-1.193-4.116-1.666-6.2a1,1,0,1,1,1.949-.444c.463,2.029,1.01,4.063,1.627,6.045a1,1,0,0,1-.658,1.252A.967.967,0,0,1,267.265,262.759Zm-3.315-16.548a1,1,0,0,1-1-.906c-.2-2.12-.318-4.276-.354-6.406a1,1,0,0,1,2-.034c.035,2.079.151,4.183.345,6.252a1,1,0,0,1-.9,1.09C264.013,246.209,263.981,246.211,263.95,246.211Zm.144-16.877a1.065,1.065,0,0,1-.112-.006,1,1,0,0,1-.883-1.1c.235-2.116.557-4.251.957-6.345a1,1,0,0,1,1.965.375c-.39,2.043-.705,4.126-.934,6.192A1,1,0,0,1,264.094,229.334Z"
    />
    <path
        class="cls-16"
        d="M267.694,212.826a.987.987,0,0,1-.314-.051,1,1,0,0,1-.635-1.263q.477-1.445,1-2.864a1,1,0,1,1,1.875.7q-.516,1.386-.981,2.795A1,1,0,0,1,267.694,212.826Z"
    />
</svg>
