<svg width="800" height="800" viewBox="0 0 512 512" xmlns="http://www.w3.org/2000/svg">
    <style>
        .icon-fill { fill: #8ea1f5; }
        @media (prefers-color-scheme: dark) { .icon-fill { fill: #fff; } }
    </style>
    <path class="icon-fill" d="M208,512a24.84,24.84,0,0,1-23.34-16l-39.84-103.6a16.06,16.06,0,0,0-9.19-9.19L32,343.34a25,25,0,0,1,0-46.68l103.6-39.84a16.06,16.06,0,0,0,9.19-9.19L184.66,144a25,25,0,0,1,46.68,0l39.84,103.6a16.06,16.06,0,0,0,9.19,9.19l103,39.63A25.49,25.49,0,0,1,400,320.52a24.82,24.82,0,0,1-16,22.82l-103.6,39.84a16.06,16.06,0,0,0-9.19,9.19L231.34,496A24.84,24.84,0,0,1,208,512Zm66.85-254.84h0Z"/>
</svg>